<?xml version="1.0" encoding="UTF-8" standalone="no"?>
<svg
   xmlns:dc="http://purl.org/dc/elements/1.1/"
   xmlns:cc="http://creativecommons.org/ns#"
   xmlns:rdf="http://www.w3.org/1999/02/22-rdf-syntax-ns#"
   xmlns:svg="http://www.w3.org/2000/svg"
   xmlns="http://www.w3.org/2000/svg"
   xmlns:sodipodi="http://sodipodi.sourceforge.net/DTD/sodipodi-0.dtd"
   xmlns:inkscape="http://www.inkscape.org/namespaces/inkscape"
   version="1.0"
   width="297mm"
   height="210mm"
   viewBox="0 0 841.88976 595.27559"
   preserveAspectRatio="xMidYMid meet"
   id="svg2"
   inkscape:version="0.91 r13725"
   sodipodi:docname="svg_logo.svg"
   inkscape:export-filename="/Users/shiradomasafumi/Documents/手帳類/logo/svg_logo2.png"
   inkscape:export-xdpi="90"
   inkscape:export-ydpi="90">
  <defs
     id="defs28">
    <inkscape:path-effect
       effect="skeletal"
       id="path-effect3492"
       is_visible="true"
       pattern="M 0,0 1,0"
       copytype="single_stretched"
       prop_scale="1"
       scale_y_rel="false"
       spacing="0"
       normal_offset="0"
       tang_offset="0"
       prop_units="false"
       vertical_pattern="false"
       fuse_tolerance="0" />
  </defs>
  <sodipodi:namedview
     pagecolor="#ca6464"
     bordercolor="#666666"
     borderopacity="1"
     objecttolerance="10"
     gridtolerance="10"
     guidetolerance="10"
     inkscape:pageopacity="0"
     inkscape:pageshadow="2"
     inkscape:window-width="1680"
     inkscape:window-height="949"
     id="namedview26"
     showgrid="false"
     inkscape:zoom="0.49859259"
     inkscape:cx="49.840286"
     inkscape:cy="563.85538"
     inkscape:window-x="0"
     inkscape:window-y="1"
     inkscape:window-maximized="1"
     inkscape:current-layer="g3588"
     units="mm" />
  <metadata
     id="metadata4">
Created by potrace 1.10, written by Peter Selinger 2001-2011
<rdf:RDF>
  <cc:Work
     rdf:about="">
    <dc:format>image/svg+xml</dc:format>
    <dc:type
       rdf:resource="http://purl.org/dc/dcmitype/StillImage" />
    <dc:title />
  </cc:Work>
</rdf:RDF>
</metadata>
  <g
     transform="matrix(0.1,0,0,-0.1,175.74803,651.9685)"
     id="g6"
     style="fill:#ffffff;stroke:none" />
  <text
     xml:space="preserve"
     style="font-style:normal;font-weight:normal;font-size:32px;line-height:125%;font-family:sans-serif;letter-spacing:0px;word-spacing:0px;fill:#000000;fill-opacity:1;stroke:none;stroke-width:1px;stroke-linecap:butt;stroke-linejoin:miter;stroke-opacity:1"
     x="185.6693"
     y="143.1496"
     id="text3474"
     sodipodi:linespacing="125%"><tspan
       sodipodi:role="line"
       id="tspan3476"
       x="185.6693"
       y="143.1496" /></text>
  <g
     id="g3588"
     transform="matrix(0.38464046,0,0,0.38949448,241.29941,211.18215)">
    <g
       id="g3633"
       transform="translate(12.514412,-39.135102)">
      <path
         transform="matrix(0.1,0,0,-0.1,175.74803,651.9685)"
         d="m -4934.0805,-159.37653 c -9,-9 -12,-82 -12,-269 0,-200 -3,-259 -13,-268 -8,-6 -77,-12 -178,-13 l -164,-3 0,-729.99997 0,-730 85,0 85,0 5,640 5,639.99997 85,0 85,0 5,-924.99997 5,-924.9999 79,-3 c 44,-2 83,1 88,6 5,5 8,410.9999 8,918.9999 0,773 2,911.99997 14,921.99997 9,8 45,11 103,9 l 88,-3 3,-516.99997 c 2,-513 2,-518 -19,-539 -17,-17 -27,-19 -62,-13 -76,13 -72,17 -71,-69 0,-104 7,-110 127,-115 103,-5 131,4 177,53 25,26 25,29 29,238 2,145 7,214 15,219 19,13 201,9 214,-4 9,-9 12,-116 12,-421 l 0,-408 -35,-14 c -19,-8 -65,-19 -103,-25 -128,-17.9999 -136,-24.9999 -110,-92.9999 11,-29 23,-64 25,-80 11,-57 39,-56 298,10 143,37 355,97 415,118 19,7 51,18 70,24 19,7 49,15.9999 65,19.9999 17,4 40,14 53,22 20,12 21,19 15,64 -12,91 -16,100 -49,97 -16,-2 -51,-10 -79,-18 -75,-22 -143,-41 -210,-58 -33,-8 -80,-20 -103,-26 -24,-6 -47,-8 -50,-5 -4,4 -8,180 -10,392 -2,286 0,389 9,399 9,11 34,14 108,12 l 96,-3 36,-109 c 20,-60 41,-117 47,-127 7,-10 12,-23 12,-29 0,-15 59,-137 94,-195 87,-144 258,-328 411,-441.9999 109,-81 228,-153 252,-153 13,0 38,25 76,79 32,43 57,81 57,85 0,4 -24,17.9999 -52,31.9999 -29,14 -62,30 -73,37 -11,6 -42,25 -70,41 -124,74 -315,236 -315,268 0,8 30,36 68,64 108,79 302,254 302,272 -1,23 -125,112 -156,112 -13,0 -24,-3 -24,-7 0,-9 -155,-171 -236,-247 -70,-65 -71,-65 -149,93 -45,93 -79,195 -72,216 6,13 51,15 371,15 416,0 386,-7 386,89 0,89 59,81 -586,81 -557,0 -574,1 -584,19 -11,21 -14,152 -4,188 l 6,23 447,2 446,3 3,78 3,77 -445,0 c -517,0 -469,-13 -464,122.99997 l 3,82 450,5 450,5 0,85 0,85 -450,5 -450,5 -3,82 c -5,136 -61,122 521,125 l 502,3 3,68 c 2,42 -2,74 -9,83 -10,12 -105,14 -594,14 -321,0 -590,-3 -599,-6 -14,-6 -16,-64 -16,-561 0,-362.99997 -4,-560.99997 -10,-573.99997 -10,-17 -22,-19 -109,-19 -70,0 -102,4 -110,13 -7,9 -12,128 -13,373 l -3,358.99997 -182,5 c -100,3 -185,9 -190,13 -4,5 -9,123 -10,264 -1,177 -6,259 -14,269 -15,18 -140,19 -157,2 z"
         id="path8"
         inkscape:connector-curvature="0"
         style="fill:#000000;stroke:none" />
      <path
         transform="matrix(0.1,0,0,-0.1,175.74803,651.9685)"
         d="m 8729.5301,-139.48278 c -48,0 -77,-4 -82,-12 -4,-7 -10,-141 -13,-298 l -5,-285 -254,-3 c -171.9999,-1 -258.9999,-6 -267.9999,-14 -10,-8 -13,-31 -11,-82 l 3,-71 224.9999,-3 c 123,-1 229,-7 234,-12 18,-18 -158,-206.00002 -293.9999,-316.00002 -41,-33 -103,-78 -137,-100 -34,-21 -64,-45 -67,-52 -5,-11 21,-51 91,-141 21,-27 302.9999,214 400.9999,344 46,60 60,75 75,75 4,0 7,-74 7,-165 0,-189 -2,-185 95,-185 95,0 96,2 95,138 -1,64 -1,123 -1,130 1,20 27,14 69,-15 22,-16 61,-43 88,-62 52,-37 68,-50 150,-125 29,-26 57,-44 65,-41 19,7 94,130 94,152 0,19 -148,122 -275,190 -41,23 -100,54 -130,70 -52,28.00002 -55,32.00002 -55,69.00002 l 0,39 245,5 245,5 3,60 c 2,32 1,69 -3,82 l -5,23 -240,0 c -149,0 -241,4 -245,10 -3,6 -6,132 -5,280 0,173 -3,277 -10,290 -9,17 -21,20 -85,20 z m 377.2968,-110.0938 c -12.2632,-0.1582 -21.172,-2.4062 -25.2968,-6.9062 -4,-3 -7,-14 -7,-24 0,-10 -6,-33 -14,-51 -8,-18 -29,-69 -47,-113 -18,-44 -46,-102 -62,-129 -33,-58 -31,-62 55,-99 l 56,-25 20,21 c 42,46 166,293 178,355 5,23 2,33 -7,35 -8,3 -36,12 -64,21 -32.5,10.625 -62.2632,16.1699 -82.7032,15.9062 z m -795.2968,-0.9062 c -7,-1 -42.9999,-17 -79.9999,-35 -61,-30 -68,-37 -61,-57 3,-12 12,-29 18,-37 18,-22 89,-174 122.9999,-262 11,-31 24,-48 35,-48 30,0 153,58 156,74 4,17 -6,39 -95,223 -55,115 -75,144 -96,142 z m 1672,-0.25 c -313.5,-0.25 -628,-2.25 -641,-5.75 -21,-5 -30,-49 -26,-118 l 3,-50 277,-5 c 152,-3 280,-9 284,-13 5,-4 0,-38 -9,-75 -9,-37 -17,-76 -17,-88 0,-32 -31,-114 -43,-115 -7,0 -80,0 -162,1 -83,1 -158,-2 -168,-5 -16,-7 -17,-52 -17,-725.00002 0,-626 2,-719.0001 15,-724.0001 28,-11 988.9999,-5 1001.9999,6 20,16 19,1421.00012 -1,1437.00012 -9,8 -82,11 -236,11 -122,-1 -225,1 -228,4 -5,6 10,66 30,115 5,14 13,47 19,75 5,27 16,60 25,73 l 15,24 252,-1 265,0 c 8,0 12,24 12,84 0,67 -3,85 -16,90 -9,3.5 -321.5,5 -634.9999,4.75 z m -5,-638.75 323.9999,0 6,-22 c 9,-34 7,-211.00002 -2,-226.00002 -7,-9 -80,-12 -332.9999,-10 l -324,3 -3,114 c -1,63.00002 0,121.00002 2,128.00002 4,10 71,13 330,13 z m 3,-420.00002 c 301.9999,0 312.9999,-1 322.9999,-20 6,-12 9,-65 8,-127 l -3,-108 -331.9999,-3 -333,-2 0,118 c 0,78 4,122 12,130 9,9 95,12 325,12 z m -1237.2656,-230.7344 c -38.2912,0.3516 -79.8592,-3.3906 -91.7344,-10.2656 -15,-8 -18,-25 -18,-108 0,-70 -4,-102 -13,-110 -9,-7 -101,-12 -268,-13 l -253.9999,-3 -3,-68 c -2,-42 2,-74 9,-83 9,-11 58,-14 260.9999,-14 217,0 249,-2 255,-16 9,-24 -25,-128 -75,-231.0001 -70,-146 -213,-286 -386.9999,-379 -21,-12 -41,-26 -42,-31 -5,-13 91,-129 112,-137 21,-8 40,1 121.9999,57 147,99 290,256 358,390 17,33 36,61 43,64 7,3 27,-6 46,-20 42,-32 216,-207 263,-264 20,-24 41,-43 48,-43 15,0 128,115 133,134 5,24 -209,211 -393,345.0001 -45,31 -47,35 -40,70 4,20 11,42 17,49 8,9 69,12 244,12 l 234,0 5,23 c 4,13 5,50 3,82 l -3,60 -230,3 c -202,2 -232,4 -242,19 -8,11 -13,52 -13,114 0,92 -1,97 -22,103 -13.5,3.375 -35.2912,5.0547 -58.2656,5.2656 z m 1231.2656,-189.2656 c 265.9999,0 309.9999,-2 322.9999,-16 13,-12 16,-38 16,-117 0,-56 -3,-112 -6,-125 l -6,-22 -326.9999,2 -326,3 -3,124 c -2,82 1,128 9,137 9,11 69,14 320,14 z m -254,-470.0001 c -1,0 -40,-39 -85,-85 -120,-122 -267,-237 -379,-295 -24,-12 -43,-29 -43,-37 0,-8 24,-41 53,-74 60,-70 73,-71 153,-18 163,109 412,325 443,386 10,19 4,25 -64,72 -42,28 -77,51 -78,51 z m 474.9999,-1 c -4,0 -30,-17 -57,-38 -86,-65 -86,-62 -3,-127 101,-81 137,-113 261,-236 59,-60 116,-108 125,-108 20,1 141,95 149,117 7,17 -34,57 -171,171 -134,111 -287,223 -304,221 z"
         id="path10"
         inkscape:connector-curvature="0"
         style="fill:#000000;stroke:none" />
      <path
         transform="matrix(0.1,0,0,-0.1,175.74803,651.9685)"
         d="m 3330.5118,10386.236 c -84,-27 -373,-84 -610,-120 -309,-47 -893,-107 -1037,-106 -37,0 -69,-4 -73,-10 -3,-5 11,-44 32,-87 l 38,-77.9998 75,-3 c 70,-4 291,13 525,39.9998 189,21 280,26 293,15 17,-13 17,-387.9998 0,-404.9998 -9,-9 -135,-12 -505,-12 l -494,0 3,-87 3,-88 489,-3 c 341,-1 493,-6 503,-13 16,-14 19,-379 3,-410 -10,-18 -28,-19 -609,-19 -537,0 -599,-2 -605,-16 -11,-28 -6,-140 7,-157 11,-16 62,-17 612,-19 l 600,-3 3,-240 c 2,-132 0,-255 -3,-274 -4,-18 -17,-44 -30,-57 -23,-23 -30,-24 -169,-24 -87,0 -175,6 -223,15 -43,8 -97,15 -120,15 -51,0 -52,-3 -26,-127 14,-67 21,-83 37,-87 69,-16 264,-27 406,-24 182,4 233,18 286,75 57,61 58,72 62,416 l 3,317 557,0 c 306,0 563,4 570,9 9,5 12,31 10,92 l -3,84 -565,5 -565,5 0,215 0,215 460,5 460,5 0,85 0,85 -460,5 -460,5 0,230 0,229.9998 55,8 c 167,23 410,65 481,83 30,8 65,14 77,14 39,0 142,33 142,45 0,19 -156,165 -176,164 -11,0 -37,-6 -59,-13 z"
         id="path18"
         inkscape:connector-curvature="0"
         style="fill:#000000;stroke:none" />
      <g
         id="text3505"
         style="font-style:normal;font-weight:normal;font-size:320px;line-height:125%;font-family:sans-serif;letter-spacing:0px;word-spacing:0px;fill:#000000;fill-opacity:1;stroke:none;stroke-width:1px;stroke-linecap:butt;stroke-linejoin:miter;stroke-opacity:1"
         transform="matrix(0.1,0,0,0.1,175.74803,651.9685)">
        <path
           id="path3619"
           style="font-style:normal;font-variant:normal;font-weight:normal;font-stretch:normal;font-size:1440px;font-family:IPAexゴシック;-inkscape-font-specification:IPAexゴシック;fill:#000000"
           d="m 779.48016,-2343.3037 q 101.25,-146.9531 254.53124,-146.9531 126.5625,0 217.2656,90.7031 105.4688,105.4687 105.4688,291.0937 0,180.7032 -104.0625,286.1719 -90.7031,90.7031 -220.0781,90.7031 -142.03129,0 -246.09379,-118.8281 l 0,385.3125 -122.34375,0 0,-1004.7656 115.3125,0 0,126.5625 z m 7.03125,165.9375 0,148.3594 q 0,88.5937 92.10938,155.3906 61.875,44.2969 132.89061,44.2969 81.5625,0 139.2188,-57.6563 76.6406,-75.9375 76.6406,-218.6719 0,-127.9687 -63.2813,-208.8281 -63.2812,-76.6406 -153.9843,-76.6406 -99.84379,0 -171.56254,93.5156 -52.03125,67.5 -52.03125,120.2344 z"
           inkscape:connector-curvature="0" />
        <path
           id="path3621"
           style="font-style:normal;font-variant:normal;font-weight:normal;font-stretch:normal;font-size:1440px;font-family:IPAexゴシック;-inkscape-font-specification:IPAexゴシック;fill:#000000"
           d="m 1951.5895,-2484.6318 -21.7968,123.0468 q -23.9063,-4.9218 -42.8907,-4.9218 -82.9687,0 -137.1093,78.0468 -67.5,98.4375 -67.5,172.9688 l 0,362.8125 -123.75,0 0,-717.1875 116.7187,0 -5.625,213.0469 2.8125,0 q 79.4531,-233.4375 231.3281,-233.4375 24.6094,0 47.8125,5.625 z"
           inkscape:connector-curvature="0" />
        <path
           id="path3623"
           style="font-style:normal;font-variant:normal;font-weight:normal;font-stretch:normal;font-size:1440px;font-family:IPAexゴシック;-inkscape-font-specification:IPAexゴシック;fill:#000000"
           d="m 2231.4333,-2622.4443 -141.3281,0 0,-144.1407 141.3281,0 0,144.1407 z m -9.1406,869.7656 -123.75,0 0,-717.1875 123.75,0 0,717.1875 z"
           inkscape:connector-curvature="0" />
        <path
           id="path3625"
           style="font-style:normal;font-variant:normal;font-weight:normal;font-stretch:normal;font-size:1440px;font-family:IPAexゴシック;-inkscape-font-specification:IPAexゴシック;fill:#000000"
           d="m 3052.6833,-2469.8662 -305.1563,729.8437 -83.6718,0 -303.75,-729.8437 135.7031,0 159.6094,419.0625 41.4843,122.3437 10.5469,31.6407 4.2188,0 q 11.9531,-40.7813 52.7343,-153.9844 l 156.0938,-419.0625 132.1875,0 z"
           inkscape:connector-curvature="0" />
        <path
           id="path3627"
           style="font-style:normal;font-variant:normal;font-weight:normal;font-stretch:normal;font-size:1440px;font-family:IPAexゴシック;-inkscape-font-specification:IPAexゴシック;fill:#000000"
           d="m 3764.9489,-1752.6787 -108.9844,0 q -25.3125,-54.1406 -31.6406,-111.0938 l -4.9219,0 q -81.5625,130.7813 -243.2812,130.7813 -111.0938,0 -181.4063,-70.3125 -61.875,-61.875 -61.875,-151.1719 0,-222.1875 383.2032,-233.4375 l 96.3281,-2.8125 0,-37.2656 q 0,-75.2344 -42.8906,-118.125 -45,-45 -115.3125,-45 -120.9375,0 -181.4063,117.4219 l -106.875,-49.2188 q 99.8438,-164.5312 291.0938,-164.5312 132.1875,0 203.2031,73.8281 66.0937,66.0937 66.0937,187.0312 l 0,263.6719 q 0,134.2969 38.6719,210.2344 z m -149.7656,-351.5625 -78.75,1.4062 q -278.4375,6.3282 -278.4375,149.7657 0,50.625 33.0469,83.6718 40.7812,40.0782 106.875,40.0782 92.1093,0 159.6093,-67.5 57.6563,-59.7657 57.6563,-144.1407 l 0,-63.2812 z"
           inkscape:connector-curvature="0" />
        <path
           id="path3629"
           style="font-style:normal;font-variant:normal;font-weight:normal;font-stretch:normal;font-size:1440px;font-family:IPAexゴシック;-inkscape-font-specification:IPAexゴシック;fill:#000000"
           d="m 4326.0427,-1792.7568 q -80.1563,55.5468 -163.8282,55.5468 -167.3437,0 -167.3437,-188.4375 l 0,-456.3281 -97.7344,0 0,-87.8906 97.7344,0 0,-161.0156 118.125,-59.0625 0,220.0781 198.9844,0 0,87.8906 -198.9844,0 0,439.4531 q 0,110.3907 75.2344,110.3907 50.625,0 96.3281,-38.6719 l 41.4844,78.0469 z"
           inkscape:connector-curvature="0" />
        <path
           id="path3631"
           style="font-style:normal;font-variant:normal;font-weight:normal;font-stretch:normal;font-size:1440px;font-family:IPAexゴシック;-inkscape-font-specification:IPAexゴシック;fill:#000000"
           d="m 4539.7927,-2097.21 q 6.3281,124.4532 78.0468,196.1719 73.125,73.125 177.1875,73.125 137.1094,0 217.2657,-127.9687 l 80.8593,53.4375 q -101.9531,170.8593 -312.8906,170.8593 -159.6094,0 -262.2656,-101.9531 -103.3594,-104.0625 -103.3594,-274.2187 0,-180.7032 108.2813,-288.9844 96.3281,-96.3281 240.4687,-96.3281 135.7031,0 227.1094,89.2968 102.6562,104.0625 102.6562,277.7344 l 0,28.8281 -553.3593,0 z m 426.0937,-90.7031 q -10.5469,-97.7344 -68.9062,-153.9844 -57.6563,-57.6562 -136.4063,-57.6562 -91.4062,0 -156.0937,78.0469 -44.2969,52.7343 -57.6563,133.5937 l 419.0625,0 z"
           inkscape:connector-curvature="0" />
      </g>
      <path
         d="m 829.70913,885.30336 26.7334,10e-6 56.27441,-44.55566 -56.27441,-44.4336 -26.7334,0 44.79981,35.15626 -907.87376,-2.97709 2.1e-5,18.55466 907.873739,2.97711 z"
         style="font-style:normal;font-variant:normal;font-weight:normal;font-stretch:normal;font-size:500px;line-height:125%;font-family:IPAexゴシック;-inkscape-font-specification:IPAexゴシック;letter-spacing:0px;word-spacing:0px;fill:#000000;fill-opacity:1;stroke:none;stroke-width:1px;stroke-linecap:butt;stroke-linejoin:miter;stroke-opacity:1"
         id="path3483-6"
         inkscape:connector-curvature="0"
         sodipodi:nodetypes="cccccccccc" />
      <path
         d="m -219.00788,545.73529 -15.33366,21.89874 4.22022,71.65332 68.67554,-20.61117 15.33363,-21.89873 -54.4944,16.53304 523.17371,-741.97902 -15.19915,-10.64247 -523.17368,741.97894 z"
         style="font-style:normal;font-variant:normal;font-weight:normal;font-stretch:normal;font-size:500px;line-height:125%;font-family:IPAexゴシック;-inkscape-font-specification:IPAexゴシック;letter-spacing:0px;word-spacing:0px;fill:#000000;fill-opacity:1;stroke:none;stroke-width:1px;stroke-linecap:butt;stroke-linejoin:miter;stroke-opacity:1"
         id="path3483-6-3"
         inkscape:connector-curvature="0"
         sodipodi:nodetypes="cccccccccc" />
      <path
         d="m 642.3715,-106.20567 -15.33356,-21.89877 -68.77557,-20.54119 -4.1202,71.583361 15.33365,21.89872 3.10224,-56.862681 518.29624,745.39423 15.1991,-10.64257 -518.2963,-745.39413 z"
         style="font-style:normal;font-variant:normal;font-weight:normal;font-stretch:normal;font-size:500px;line-height:125%;font-family:IPAexゴシック;-inkscape-font-specification:IPAexゴシック;letter-spacing:0px;word-spacing:0px;fill:#000000;fill-opacity:1;stroke:none;stroke-width:1px;stroke-linecap:butt;stroke-linejoin:miter;stroke-opacity:1"
         id="path3483-6-1"
         inkscape:connector-curvature="0"
         sodipodi:nodetypes="cccccccccc" />
    </g>
  </g>
</svg>
