<?xml version="1.0" encoding="UTF-8" standalone="no"?>
<svg
   xmlns:dc="http://purl.org/dc/elements/1.1/"
   xmlns:cc="http://creativecommons.org/ns#"
   xmlns:rdf="http://www.w3.org/1999/02/22-rdf-syntax-ns#"
   xmlns:svg="http://www.w3.org/2000/svg"
   xmlns="http://www.w3.org/2000/svg"
   xmlns:sodipodi="http://sodipodi.sourceforge.net/DTD/sodipodi-0.dtd"
   xmlns:inkscape="http://www.inkscape.org/namespaces/inkscape"
   version="1.0"
   width="297mm"
   height="210mm"
   viewBox="0 0 841.88976 595.27559"
   preserveAspectRatio="xMidYMid meet"
   id="svg2"
   inkscape:version="0.91 r13725"
   sodipodi:docname="svg_logo.svg"
   inkscape:export-filename="/Users/shiradomasafumi/Documents/手帳類/logo/type2/svg_logo.png"
   inkscape:export-xdpi="89.988571"
   inkscape:export-ydpi="89.988571">
  <defs
     id="defs28">
    <inkscape:path-effect
       effect="skeletal"
       id="path-effect3492"
       is_visible="true"
       pattern="M 0,0 1,0"
       copytype="single_stretched"
       prop_scale="1"
       scale_y_rel="false"
       spacing="0"
       normal_offset="0"
       tang_offset="0"
       prop_units="false"
       vertical_pattern="false"
       fuse_tolerance="0" />
  </defs>
  <sodipodi:namedview
     pagecolor="#ca6464"
     bordercolor="#666666"
     borderopacity="1"
     objecttolerance="10"
     gridtolerance="10"
     guidetolerance="10"
     inkscape:pageopacity="0"
     inkscape:pageshadow="2"
     inkscape:window-width="1680"
     inkscape:window-height="949"
     id="namedview26"
     showgrid="false"
     inkscape:zoom="0.4985926"
     inkscape:cx="-6.5743686"
     inkscape:cy="503.53397"
     inkscape:window-x="12"
     inkscape:window-y="19"
     inkscape:window-maximized="0"
     inkscape:current-layer="g3633"
     units="mm" />
  <metadata
     id="metadata4">
Created by potrace 1.10, written by Peter Selinger 2001-2011
<rdf:RDF>
  <cc:Work
     rdf:about="">
    <dc:format>image/svg+xml</dc:format>
    <dc:type
       rdf:resource="http://purl.org/dc/dcmitype/StillImage" />
    <dc:title />
  </cc:Work>
</rdf:RDF>
</metadata>
  <g
     transform="matrix(0.1,0,0,-0.1,175.74803,651.9685)"
     id="g6"
     style="fill:#ffffff;stroke:none" />
  <text
     xml:space="preserve"
     style="font-style:normal;font-weight:normal;font-size:32px;line-height:125%;font-family:sans-serif;letter-spacing:0px;word-spacing:0px;fill:#000000;fill-opacity:1;stroke:none;stroke-width:1px;stroke-linecap:butt;stroke-linejoin:miter;stroke-opacity:1"
     x="185.6693"
     y="143.1496"
     id="text3474"
     sodipodi:linespacing="125%"><tspan
       sodipodi:role="line"
       id="tspan3476"
       x="185.6693"
       y="143.1496" /></text>
  <g
     id="g3588"
     transform="matrix(0.38464046,0,0,0.38949448,241.29941,211.18215)">
    <g
       id="g3633"
       transform="matrix(0.9,0,0,0.9,56.945202,-12.204444)">
      <path
         d="m 315.51261,841.8575 c -0.81,0.81 -1.08,7.38 -1.08,24.21 0,18 -0.27,23.31 -1.17,24.12 -0.72,0.54 -6.93,1.08 -16.02,1.17 l -14.76,0.27 0,65.70006 0,65.70024 7.65,0 7.65,0 0.45,-57.60018 0.45,-57.60012 7.65,0 7.65,0 0.45,83.25021 0.45,83.25019 7.11,0.27 c 3.96,0.18 7.47,-0.09 7.92,-0.54 0.45,-0.45 0.72,-36.9901 0.72,-82.71019 0,-69.57021 0.18,-82.08021 1.26,-82.98021 0.81,-0.72 4.05,-0.99 9.27,-0.81 l 7.92,0.27 0.27,46.53006 c 0.18,46.17024 0.18,46.62024 -1.71,48.51024 -1.53,1.53 -2.43,1.71 -5.58,1.17 -6.84,-1.17 -6.48,-1.53 -6.39,6.21 0,9.36 0.63,9.9 11.43,10.35 9.27,0.45 11.79,-0.36 15.93,-4.77 2.25,-2.34 2.25,-2.61 2.61,-21.42006 0.18,-13.05007 0.63,-19.26011 1.35,-19.71011 1.71,-1.17 18.09,-0.81 19.26,0.36 0.81,0.81 1.08,10.44004 1.08,37.89017 l 0,36.72 -3.15,1.26 c -1.71,0.7201 -5.85,1.7101 -9.27,2.2501 -11.52,1.62 -12.24,2.25 -9.9,8.37 0.99,2.61 2.07,5.76 2.25,7.2 0.99,5.13 3.51,5.04 26.82,-0.9 12.87,-3.33 31.95,-8.73 37.35,-10.62 1.71,-0.63 4.59,-1.62 6.3,-2.16 1.71,-0.63 4.41,-1.44 5.85,-1.8 1.53,-0.36 3.6,-1.26 4.77,-1.9801 1.8,-1.08 1.89,-1.71 1.35,-5.76 -1.08,-8.19 -1.44,-9 -4.41,-8.73 -1.44,0.18 -4.59,0.9 -7.11,1.62 -6.75,1.98 -12.87,3.69 -18.9,5.22 -2.97,0.72 -7.2,1.8 -9.27,2.34 -2.16,0.54 -4.23,0.72 -4.5,0.45 -0.36,-0.36 -0.72,-16.2 -0.9,-35.28 -0.18,-25.74013 0,-35.01017 0.81,-35.91017 0.81,-0.99 3.06,-1.26 9.72,-1.08 l 8.64,0.27 3.24,9.81004 c 1.8,5.40004 3.69,10.53007 4.23,11.43007 0.63,0.9 1.08,2.07 1.08,2.61 0,1.35 5.31,12.33006 8.46,17.55006 7.83,12.96 23.22,29.52 36.99,39.7801 9.81,7.29 20.52,13.77 22.68,13.77 1.17,0 3.42,-2.25 6.84,-7.11 2.88,-3.87 5.13,-7.29 5.13,-7.65 0,-0.36 -2.16,-1.62 -4.68,-2.88 -2.61,-1.2601 -5.58,-2.7001 -6.57,-3.3301 -0.99,-0.54 -3.78,-2.25 -6.3,-3.69 -11.16,-6.66 -28.35,-21.24 -28.35,-24.12 0,-0.72 2.7,-3.24 6.12,-5.76 9.72,-7.11 27.18,-22.86009 27.18,-24.48009 -0.09,-2.07 -11.25,-10.08004 -14.04,-10.08004 -1.17,0 -2.16,0.27 -2.16,0.63 0,0.81 -13.95,15.39007 -21.24,22.23013 -6.3,5.85 -6.39,5.85 -13.41,-8.37006 -4.05,-8.37003 -7.11,-17.55011 -6.48,-19.44011 0.54,-1.17 4.59,-1.35 33.39,-1.35 37.44,0 34.74,0.63 34.74,-8.01001 0,-8.01006 5.31,-7.29006 -52.74,-7.29006 -50.13,0 -51.66,-0.09 -52.56,-1.71 -0.99,-1.89 -1.26,-13.68 -0.36,-16.92 l 0.54,-2.07 40.23,-0.18 40.14,-0.27 0.27,-7.02002 0.27,-6.93004 -40.05,0 c -46.53,0 -42.21,1.17003 -41.76,-11.07 l 0.27,-7.38 40.5,-0.45 40.5,-0.45 0,-7.65 0,-7.65 -40.5,-0.45 -40.5,-0.45 -0.27,-7.38 c -0.45,-12.24 -5.49,-10.98 46.89,-11.25 l 45.18,-0.27 0.27,-6.12 c 0.18,-3.78 -0.18,-6.66 -0.81,-7.47 -0.9,-1.08 -9.45,-1.26 -53.46,-1.26 -28.89,0 -53.1,0.27 -53.91,0.54 -1.26,0.54 -1.44,5.76 -1.44,50.49 0,32.67006 -0.36,50.49006 -0.9,51.66006 -0.9,1.53 -1.98,1.71 -9.81,1.71 -6.3,0 -9.18,-0.36 -9.9,-1.17 -0.63,-0.81 -1.08,-11.52003 -1.17,-33.57006 l -0.27,-32.31 -16.38,-0.45 c -9,-0.27 -16.65,-0.81 -17.1,-1.17 -0.36,-0.45 -0.81,-11.07 -0.9,-23.76 -0.09,-15.93 -0.54,-23.31 -1.26,-24.21 -1.35,-1.62 -12.6,-1.71 -14.13,-0.18 z"
         id="path8"
         inkscape:connector-curvature="0"
         style="fill:#000000;stroke:none" />
      <path
         d="m 609.02862,840.41562 c -4.32,0 -6.93,0.36 -7.38,1.08 -0.36,0.63 -0.9,12.69 -1.17,26.82 l -0.45,25.65 -22.86,0.27 c -15.47999,0.09 -23.30999,0.54 -24.11999,1.26 -0.9,0.72 -1.17,2.79 -0.99,7.38 l 0.27,6.39 20.24999,0.27 c 11.07,0.09 20.61,0.63 21.06,1.08 1.62,1.62 -14.22,18.54005 -26.45999,28.43998 -3.69,2.97 -9.27,7.01997 -12.33,8.99997 -3.06,1.89001 -5.76,4.05001 -6.03,4.68003 -0.45,0.99 1.89,4.59 8.19,12.69006 1.89,2.43 27.26999,-19.26009 36.08999,-30.96006 4.14,-5.39993 5.4,-6.74994 6.75,-6.74994 0.36,0 0.63,6.65994 0.63,14.84994 0,17.01 -0.18,16.65 8.55,16.65 8.55,0 8.64,-0.18 8.55,-12.42003 -0.09,-5.75997 -0.09,-11.06997 -0.09,-11.69997 0.09,-1.8 2.43,-1.26 6.21,1.35 1.98,1.44 5.49,3.87 7.92,5.58 4.68,3.32997 6.12,4.49997 13.5,11.25 2.61,2.34 5.13,3.96 5.85,3.69 1.71,-0.63 8.46,-11.70003 8.46,-13.68 0,-1.71 -13.32,-10.98 -24.75,-17.09994 -3.69,-2.07 -9,-4.86004 -11.7,-6.30004 -4.68,-2.52 -4.95,-2.88 -4.95,-6.21 l 0,-3.51 22.05,-0.45 22.05,-0.45 0.27,-5.4 c 0.18,-2.88 0.09,-6.21 -0.27,-7.38 l -0.45,-2.07 -21.6,0 c -13.41,0 -21.69,-0.36 -22.05,-0.9 -0.27,-0.54 -0.54,-11.88 -0.45,-25.2 0,-15.57 -0.27,-24.93 -0.9,-26.1 -0.81,-1.53 -1.89,-1.8 -7.65,-1.8 z m 33.95671,9.90844 c -1.10369,0.0142 -1.90548,0.21656 -2.27671,0.62156 -0.36,0.27 -0.63,1.26 -0.63,2.16 0,0.9 -0.54,2.97 -1.26,4.59 -0.72,1.62 -2.61,6.21 -4.23,10.17 -1.62,3.96 -4.14,9.18 -5.58,11.61 -2.97,5.22 -2.79,5.58 4.95,8.91 l 5.04,2.25 1.8,-1.89 c 3.78,-4.14 14.94,-26.37 16.02,-31.95 0.45,-2.07 0.18,-2.97 -0.63,-3.15 -0.72,-0.27 -3.24,-1.08 -5.76,-1.89 -2.925,-0.95625 -5.60369,-1.45529 -7.44329,-1.43156 z m -71.57671,0.0815 c -0.63,0.09 -3.86999,1.53 -7.19999,3.15 -5.49,2.7 -6.12,3.33 -5.49,5.13 0.27,1.08 1.08,2.61 1.62,3.33 1.62,1.98 8.01,15.66 11.06999,23.58 0.99,2.79 2.16,4.32 3.15,4.32 2.7,0 13.77,-5.22 14.04,-6.66 0.36,-1.53 -0.54,-3.51 -8.55,-20.07 -4.95,-10.35 -6.75,-12.96 -8.64,-12.78 z m 150.47999,0.0225 c -28.21499,0.0225 -56.51999,0.2025 -57.68999,0.5175 -1.89,0.45 -2.7,4.41 -2.34,10.62 l 0.27,4.5 24.93,0.45 c 13.67999,0.27 25.19999,0.81 25.55999,1.17 0.45,0.36 0,3.42 -0.81,6.75 -0.81,3.33 -1.53,6.84 -1.53,7.92 0,2.88 -2.79,10.26 -3.87,10.35 -0.63,0 -7.2,0 -14.57999,-0.09 -7.47,-0.09 -14.22,0.18 -15.12,0.45 -1.44,0.63 -1.53,4.68 -1.53,65.25 0,56.34014 0.18,64.71014 1.35,65.16014 2.52,0.99 89.00998,0.45 90.17998,-0.54 1.8,-1.44 1.71,-127.89014 -0.09,-129.33014 -0.81,-0.72 -7.38,-0.99 -21.24,-0.99 -10.98,0.09 -20.25,-0.09 -20.52,-0.36 -0.45,-0.54 0.9,-5.94 2.7,-10.35 0.45,-1.26 1.17,-4.23 1.71,-6.75 0.45,-2.43 1.44,-5.4 2.25,-6.57 l 1.35,-2.16 22.68,0.09 23.85,0 c 0.72,0 1.08,-2.16 1.08,-7.56 0,-6.03 -0.27,-7.65 -1.44,-8.1 -0.81,-0.315 -28.935,-0.45 -57.14999,-0.4275 z m -0.45,57.4875 29.15999,0 0.54,1.98 c 0.81,3.06 0.63,18.98998 -0.18,20.33998 -0.63,0.81 -7.2,1.08 -29.96999,0.9 l -29.15999,-0.27 -0.27,-10.25998 c -0.09,-5.67 0,-10.89 0.18,-11.52 0.36,-0.9 6.38999,-1.17 29.69999,-1.17 z m 0.27,37.79997 c 27.17999,0 28.16999,0.09 29.06999,1.8 0.54,1.08001 0.81,5.85003 0.72,11.43003 l -0.27,9.72006 -29.87999,0.27 -29.96999,0.18001 0,-10.62007 c 0,-7.02002 0.36,-10.98003 1.08,-11.70003 0.81,-0.81 8.54999,-1.08 29.24999,-1.08 z m -111.35389,20.76624 c -3.44621,-0.0315 -7.18733,0.3051 -8.2561,0.92385 -1.35,0.72 -1.62,2.25001 -1.62,9.72002 0,6.30003 -0.36,9.18007 -1.17,9.90007 -0.81,0.63 -9.09,1.08 -24.12,1.17 l -22.85999,0.27 -0.27,6.12003 c -0.18,3.78 0.18,6.65996 0.81,7.46996 0.81,0.99 5.22,1.26 23.48999,1.26 19.53,0 22.41,0.18 22.95,1.44 0.81,2.16 -2.25,11.52 -6.75,20.79 -6.3,13.14 -19.17,25.7401 -34.82999,34.1101 -1.89,1.08 -3.69,2.34 -3.78,2.79 -0.45,1.1701 8.19,11.6101 10.08,12.3301 1.89,0.72 3.6,-0.09 10.97999,-5.13 13.23,-8.9101 26.1,-23.0401 32.22,-35.1002 1.53,-2.97 3.24,-5.49 3.87,-5.76 0.63,-0.27 2.43,0.54 4.14,1.8 3.78,2.88 19.44,18.6301 23.67,23.7601 1.8,2.16 3.69,3.87 4.32,3.87 1.35,0 11.52,-10.35 11.97,-12.06 0.45,-2.16 -18.81,-18.9901 -35.37,-31.0501 -4.05,-2.79 -4.23,-3.15 -3.6,-6.3 0.36,-1.8 0.99,-3.78 1.53,-4.41 0.72,-0.81 6.21,-1.08 21.96,-1.08 l 21.06,0 0.45,-2.07 c 0.36,-1.17 0.45,-4.49996 0.27,-7.37996 l -0.27,-5.40003 -20.7,-0.27 c -18.18,-0.18 -20.88,-0.36 -21.78,-1.71 -0.72,-0.99 -1.17,-4.68004 -1.17,-10.26008 0,-8.28001 -0.09,-8.73001 -1.98,-9.27001 -1.215,-0.30375 -3.17621,-0.45486 -5.2439,-0.47385 z m 110.81389,17.0339 c 23.93999,0 27.89999,0.18 29.06999,1.44 1.17,1.08004 1.44,3.42004 1.44,10.53007 0,5.03996 -0.27,10.07996 -0.54,11.24996 l -0.54,1.98 -29.42999,-0.18 -29.33999,-0.27 -0.27,-11.15996 c -0.18,-7.38003 0.09,-11.52003 0.81,-12.33007 0.81,-0.99 6.20999,-1.26 28.79999,-1.26 z m -22.86,42.30003 c -0.09,0 -3.59999,3.51 -7.64999,7.65 -10.8,10.9801 -24.03,21.3301 -34.11,26.5501 -2.16,1.08 -3.87,2.61 -3.87,3.33 0,0.7201 2.16,3.6901 4.77,6.6601 5.4,6.3 6.57,6.39 13.77,1.62 14.67,-9.8101 37.07999,-29.2502 39.86999,-34.7402 0.9,-1.71 0.36,-2.25 -5.76,-6.48 -3.78,-2.52 -6.93,-4.59 -7.02,-4.59 z m 42.74999,0.09 c -0.36,0 -2.7,1.53 -5.13,3.42 -7.74,5.85 -7.74,5.58 -0.27,11.43 9.09,7.2901 12.33,10.1701 23.49,21.2401 5.31,5.4001 10.44,9.7201 11.25,9.7201 1.8,-0.09 12.69,-8.5501 13.41,-10.5301 0.63,-1.53 -3.06,-5.13 -15.39,-15.39 -12.06,-9.9901 -25.83,-20.0701 -27.36,-19.8901 z"
         id="path10"
         inkscape:connector-curvature="0"
         style="fill:#000000;stroke:none" />
      <path
         d="m 189.8605,850.99206 c -7.56,2.43 -33.57,7.56 -54.9,10.8 -27.81,4.23 -80.37,9.63 -93.33,9.54 -3.33,0 -6.21,0.36 -6.57,0.9 -0.27,0.45 0.99,3.96 2.88,7.83 l 3.42,7.01998 6.75,0.27 c 6.3,0.36 26.19,-1.17 47.250003,-3.59998 17.009997,-1.89 25.199997,-2.34 26.369997,-1.35 1.53,1.17 1.53,34.91998 0,36.44998 -0.81,0.81 -12.15,1.08 -45.45,1.08 l -44.46,0 0.27,7.83 0.27,7.91996 44.01,0.27 c 30.69,0.09 44.37,0.54 45.27,1.17 1.44,1.26001 1.71,34.11007 0.27,36.90007 -0.9,1.62002 -2.52,1.71002 -54.81,1.71002 -48.33,0 -53.91,0.18 -54.45,1.44 -0.99,2.52001 -0.54,12.60005 0.63,14.13005 0.99,1.44 5.58,1.53 55.08,1.71 l 54,0.27 0.27,21.60006 c 0.18,11.88 0,22.95 -0.27,24.66 -0.36,1.62 -1.53,3.96 -2.7,5.13 -2.07,2.07 -2.7,2.16 -15.21,2.16 -7.829997,0 -15.749997,-0.54 -20.069997,-1.35 -3.87,-0.72 -8.730003,-1.35 -10.800003,-1.35 -4.59,0 -4.68,0.27 -2.34,11.4301 1.26,6.03 1.89,7.47 3.33,7.83 6.210003,1.44 23.760003,2.43 36.54,2.16 16.38,-0.36 20.97,-1.62 25.74,-6.75 5.13,-5.49 5.22,-6.48 5.58,-37.4401 l 0.27,-28.53006 50.13,0 c 27.54,0 50.67,-0.36 51.3,-0.81 0.81,-0.45 1.08,-2.79 0.9,-8.28003 l -0.27,-7.56002 -50.85,-0.45 -50.85,-0.45 0,-19.35009 0,-19.35 41.4,-0.45 41.4,-0.45 0,-7.64996 0,-7.65 -41.4,-0.45 -41.4,-0.45 0,-20.7 0,-20.69998 4.95,-0.72 c 15.03,-2.07 36.9,-5.85 43.29,-7.47 2.7,-0.72 5.85,-1.26 6.93,-1.26 3.51,0 12.77999,-2.97 12.77999,-4.05 0,-1.71 -14.03999,-14.85 -15.83999,-14.76 -0.99,0 -3.33,0.54 -5.31,1.17 z"
         id="path18"
         inkscape:connector-curvature="0"
         style="fill:#000000;stroke:none" />
      <path
         d="m 943.33892,251.63032 -48.48828,-13.16546 -93.38153,-25.97565 -26.41175,96.78676 -11.9564,41.47836 47.72089,-24.21167 190.23065,317.06466 -550.39089,6.64279 6.04502,106.13569 732.89767,-9.52185 L 891.96551,280.2782 Z"
         style="font-style:normal;font-variant:normal;font-weight:normal;font-stretch:normal;font-size:500px;line-height:125%;font-family:IPAexゴシック;-inkscape-font-specification:IPAexゴシック;letter-spacing:0px;word-spacing:0px;fill:#000000;fill-opacity:1;stroke:none;stroke-width:1px;stroke-linecap:butt;stroke-linejoin:miter;stroke-opacity:1"
         id="path3483-6-1"
         inkscape:connector-curvature="0"
         sodipodi:nodetypes="cccccccccccc" />
      <path
         d="M -6.839105,14.43457 5.859625,62.48621 29.771006,155.33687 127.85446,129.53171 170.20729,119.01809 125.11423,90.3115 379.44372,-321.68915 689.10608,148.56968 812.53147,135.6464 383.50322,-527.58575 43.970486,44.04692 Z"
         style="font-style:normal;font-variant:normal;font-weight:normal;font-stretch:normal;font-size:500px;line-height:125%;font-family:IPAexゴシック;-inkscape-font-specification:IPAexゴシック;letter-spacing:0px;word-spacing:0px;fill:#000000;fill-opacity:1;stroke:none;stroke-width:1px;stroke-linecap:butt;stroke-linejoin:miter;stroke-opacity:1"
         id="path3483-6-1-0"
         inkscape:connector-curvature="0"
         sodipodi:nodetypes="cccccccccccc" />
      <path
         d="m 276.29011,803.72286 35.78971,-34.88616 69.47017,-66.87503 -71.67166,-70.98156 -30.39644,-30.96477 -2.62787,52.91828 -498.78932,-8.05129 265.757439,-435.70671 -96.098635,-47.89791 -324.726884,582.12521 653.85739,2.05979 z"
         style="font-style:normal;font-variant:normal;font-weight:normal;font-stretch:normal;font-size:500px;line-height:125%;font-family:IPAexゴシック;-inkscape-font-specification:IPAexゴシック;letter-spacing:0px;word-spacing:0px;fill:#000000;fill-opacity:1;stroke:none;stroke-width:1px;stroke-linecap:butt;stroke-linejoin:miter;stroke-opacity:1"
         id="path3483-6-1-01"
         inkscape:connector-curvature="0"
         sodipodi:nodetypes="cccccccccccc" />
      <g
         transform="scale(1.00629,0.99374931)"
         style="font-style:normal;font-variant:normal;font-weight:normal;font-stretch:normal;font-size:137.79092407px;line-height:125%;font-family:IPAexゴシック;-inkscape-font-specification:IPAexゴシック;letter-spacing:0px;word-spacing:0px;fill:#000000;fill-opacity:1;stroke:none;stroke-width:1px;stroke-linecap:butt;stroke-linejoin:miter;stroke-opacity:1"
         id="text3373">
        <path
           d="m 292.54892,162.75051 6.45895,5.92071 q -5.18062,34.91869 -22.47176,56.38124 -16.95475,20.85703 -47.23107,32.22747 l -7.87185,-9.62114 q 54.83379,-16.82019 65.19503,-74.74889 l -77.171,1.4129 0,-10.4958 83.0917,-1.07649 z m 16.61834,-26.57588 q 6.66079,0 11.23588,5.04605 3.96956,4.30597 3.96956,10.09211 0,6.72807 -5.04605,11.30316 -4.37325,3.96956 -10.15939,3.96956 -6.72807,0 -11.30316,-5.04605 -3.96957,-4.37325 -3.96957,-10.22667 0,-6.66079 5.04606,-11.23588 4.44053,-3.90228 10.22667,-3.90228 z m 0,6.05526 q -4.03685,0 -6.86264,3.02763 -2.35482,2.62395 -2.35482,6.05527 0,4.10412 3.02763,6.86263 2.69123,2.35483 6.18983,2.35483 4.03684,0 6.79535,-3.02764 2.35483,-2.62394 2.35483,-6.18982 0,-3.96956 -3.02764,-6.72807 -2.62394,-2.35483 -6.12254,-2.35483 z"
           style=""
           id="path3380" />
        <path
           d="m 357.60938,153.39849 74.81617,0 0,10.22667 -74.81617,0 0,-10.22667 z m -11.84141,30.27633 92.04003,0 6.59351,6.2571 q -8.81377,28.93072 -27.11413,46.02002 -16.01281,14.93632 -41.1758,22.74088 l -7.19904,-10.22667 q 46.89467,-10.56307 61.62915,-54.56466 l -84.77372,0 0,-10.22667 z"
           style=""
           id="path3382" />
        <path
           d="m 531.66461,259.76932 0,-66.87704 q -22.40448,16.95474 -43.5979,26.23948 l -6.9972,-8.67921 q 48.10572,-20.2515 79.39125,-61.49459 l 9.62115,5.92071 q -11.43772,15.13816 -26.71045,28.52702 l 0,76.36363 -11.70685,0 z"
           style=""
           id="path3384" />
        <path
           d="m 197.88494,384.17138 q 14.86904,-11.97597 35.99519,-36.39888 5.51702,-6.32438 10.02483,-6.32438 4.44052,0 13.2543,8.41009 24.69202,23.88465 59.61072,47.97115 l -7.53544,10.63036 q -34.58229,-26.23948 -59.94713,-51.20063 -3.49859,-3.29676 -4.97877,-3.29676 -1.54746,0 -6.32439,5.78614 -12.58149,15.94553 -32.63115,34.38045 l -7.46816,-9.95754 z m 106.1017,-37.20624 q -7.80456,-11.63957 -16.28193,-18.70405 l 6.52623,-4.97877 q 8.27553,6.66079 16.61834,17.76211 l -6.86264,5.92071 z m -12.85062,10.0921 q -6.18982,-10.56307 -15.81097,-19.175 l 6.72808,-5.18062 q 8.0064,6.59351 16.28193,18.43492 l -7.19904,5.9207 z"
           style=""
           id="path3386" />
        <path
           d="m 339.10718,369.16777 112.42609,0 0,11.03404 -112.42609,0 0,-11.03404 z"
           style=""
           id="path3388" />
        <path
           d="m 513.43154,319.44732 11.1686,0 0,38.55185 q 27.65238,12.64878 51.94072,28.39247 l -7.26632,11.1686 q -22.80817,-17.35843 -44.6744,-28.39247 l 0,61.83099 -11.1686,0 0,-111.55144 z"
           style=""
           id="path3390" />
      </g>
    </g>
  </g>
</svg>
