<?xml version="1.0" encoding="UTF-8" standalone="no"?>
<svg
   xmlns:dc="http://purl.org/dc/elements/1.1/"
   xmlns:cc="http://creativecommons.org/ns#"
   xmlns:rdf="http://www.w3.org/1999/02/22-rdf-syntax-ns#"
   xmlns:svg="http://www.w3.org/2000/svg"
   xmlns="http://www.w3.org/2000/svg"
   xmlns:sodipodi="http://sodipodi.sourceforge.net/DTD/sodipodi-0.dtd"
   xmlns:inkscape="http://www.inkscape.org/namespaces/inkscape"
   version="1.0"
   width="297mm"
   height="210mm"
   viewBox="0 0 841.88976 595.27559"
   preserveAspectRatio="xMidYMid meet"
   id="svg2"
   inkscape:version="0.91 r13725"
   sodipodi:docname="svg_logo.svg"
   inkscape:export-filename="/Users/shiradomasafumi/Documents/手帳類/logo/svg_logo3.png"
   inkscape:export-xdpi="90"
   inkscape:export-ydpi="90">
  <defs
     id="defs28">
    <inkscape:path-effect
       effect="skeletal"
       id="path-effect3492"
       is_visible="true"
       pattern="M 0,0 1,0"
       copytype="single_stretched"
       prop_scale="1"
       scale_y_rel="false"
       spacing="0"
       normal_offset="0"
       tang_offset="0"
       prop_units="false"
       vertical_pattern="false"
       fuse_tolerance="0" />
  </defs>
  <sodipodi:namedview
     pagecolor="#ca6464"
     bordercolor="#666666"
     borderopacity="1"
     objecttolerance="10"
     gridtolerance="10"
     guidetolerance="10"
     inkscape:pageopacity="0"
     inkscape:pageshadow="2"
     inkscape:window-width="1680"
     inkscape:window-height="949"
     id="namedview26"
     showgrid="false"
     inkscape:zoom="0.49859259"
     inkscape:cx="79.793326"
     inkscape:cy="404.67497"
     inkscape:window-x="0"
     inkscape:window-y="1"
     inkscape:window-maximized="1"
     inkscape:current-layer="g3633"
     units="mm" />
  <metadata
     id="metadata4">
Created by potrace 1.10, written by Peter Selinger 2001-2011
<rdf:RDF>
  <cc:Work
     rdf:about="">
    <dc:format>image/svg+xml</dc:format>
    <dc:type
       rdf:resource="http://purl.org/dc/dcmitype/StillImage" />
    <dc:title />
  </cc:Work>
</rdf:RDF>
</metadata>
  <g
     transform="matrix(0.1,0,0,-0.1,175.74803,651.9685)"
     id="g6"
     style="fill:#ffffff;stroke:none" />
  <text
     xml:space="preserve"
     style="font-style:normal;font-weight:normal;font-size:32px;line-height:125%;font-family:sans-serif;letter-spacing:0px;word-spacing:0px;fill:#000000;fill-opacity:1;stroke:none;stroke-width:1px;stroke-linecap:butt;stroke-linejoin:miter;stroke-opacity:1"
     x="185.6693"
     y="143.1496"
     id="text3474"
     sodipodi:linespacing="125%"><tspan
       sodipodi:role="line"
       id="tspan3476"
       x="185.6693"
       y="143.1496" /></text>
  <g
     id="g3588"
     transform="matrix(0.38464046,0,0,0.38949448,241.29941,211.18215)">
    <g
       id="g3633"
       transform="translate(12.514412,-39.135102)">
      <path
         d="m 366.66463,117.36515 c -0.9,0.9 -1.2,8.2 -1.2,26.9 0,20 -0.3,25.9 -1.3,26.8 -0.8,0.6 -7.7,1.2 -17.8,1.3 l -16.4,0.3 0,73 0,73 8.5,0 8.5,0 0.5,-64 0.5,-64 8.5,0 8.5,0 0.5,92.5 0.5,92.49999 7.9,0.3 c 4.4,0.2 8.3,-0.1 8.8,-0.6 0.5,-0.5 0.8,-41.09999 0.8,-91.89999 0,-77.3 0.2,-91.2 1.4,-92.2 0.9,-0.8 4.5,-1.1 10.3,-0.9 l 8.8,0.3 0.3,51.7 c 0.2,51.3 0.2,51.8 -1.9,53.9 -1.7,1.7 -2.7,1.9 -6.2,1.3 -7.6,-1.3 -7.2,-1.7 -7.1,6.9 0,10.4 0.7,11 12.7,11.5 10.3,0.5 13.1,-0.4 17.7,-5.3 2.5,-2.6 2.5,-2.9 2.9,-23.8 0.2,-14.5 0.7,-21.4 1.5,-21.9 1.9,-1.3 20.1,-0.9 21.4,0.4 0.9,0.9 1.2,11.6 1.2,42.1 l 0,40.8 -3.5,1.4 c -1.9,0.8 -6.5,1.9 -10.3,2.5 -12.8,1.79999 -13.6,2.49999 -11,9.29999 1.1,2.9 2.3,6.4 2.5,8 1.1,5.7 3.9,5.6 29.8,-1 14.3,-3.7 35.5,-9.7 41.5,-11.8 1.9,-0.7 5.1,-1.8 7,-2.4 1.9,-0.7 4.9,-1.59999 6.5,-1.99999 1.7,-0.4 4,-1.4 5.3,-2.2 2,-1.2 2.1,-1.9 1.5,-6.4 -1.2,-9.1 -1.6,-10 -4.9,-9.7 -1.6,0.2 -5.1,1 -7.9,1.8 -7.5,2.2 -14.3,4.1 -21,5.8 -3.3,0.8 -8,2 -10.3,2.6 -2.4,0.6 -4.7,0.8 -5,0.5 -0.4,-0.4 -0.8,-18 -1,-39.2 -0.2,-28.6 0,-38.9 0.9,-39.9 0.9,-1.1 3.4,-1.4 10.8,-1.2 l 9.6,0.3 3.6,10.9 c 2,6 4.1,11.7 4.7,12.7 0.7,1 1.2,2.3 1.2,2.9 0,1.5 5.9,13.7 9.4,19.5 8.7,14.4 25.8,32.8 41.1,44.19999 10.9,8.1 22.8,15.3 25.2,15.3 1.3,0 3.8,-2.5 7.6,-7.9 3.2,-4.3 5.7,-8.1 5.7,-8.5 0,-0.4 -2.4,-1.79999 -5.2,-3.19999 -2.9,-1.4 -6.2,-3 -7.3,-3.7 -1.1,-0.6 -4.2,-2.5 -7,-4.1 -12.4,-7.4 -31.5,-23.6 -31.5,-26.8 0,-0.8 3,-3.6 6.8,-6.4 10.8,-7.9 30.2,-25.4 30.2,-27.2 -0.1,-2.3 -12.5,-11.2 -15.6,-11.2 -1.3,0 -2.4,0.3 -2.4,0.7 0,0.9 -15.5,17.1 -23.6,24.7 -7,6.5 -7.1,6.5 -14.9,-9.3 -4.5,-9.3 -7.9,-19.5 -7.2,-21.6 0.6,-1.3 5.1,-1.5 37.1,-1.5 41.6,0 38.6,0.7 38.6,-8.9 0,-8.9 5.9,-8.1 -58.6,-8.1 -55.7,0 -57.4,-0.1 -58.4,-1.9 -1.1,-2.1 -1.4,-15.2 -0.4,-18.8 l 0.6,-2.3 44.7,-0.2 44.6,-0.3 0.3,-7.8 0.3,-7.7 -44.5,0 c -51.7,0 -46.9,1.3 -46.4,-12.3 l 0.3,-8.2 45,-0.5 45,-0.5 0,-8.5 0,-8.5 -45,-0.5 -45,-0.5 -0.3,-8.2 c -0.5,-13.6 -6.1,-12.2 52.1,-12.5 l 50.2,-0.3 0.3,-6.8 c 0.2,-4.2 -0.2,-7.4 -0.9,-8.3 -1,-1.2 -10.5,-1.4 -59.4,-1.4 -32.1,0 -59,0.3 -59.9,0.6 -1.4,0.6 -1.6,6.4 -1.6,56.1 0,36.3 -0.4,56.1 -1,57.4 -1,1.7 -2.2,1.9 -10.9,1.9 -7,0 -10.2,-0.4 -11,-1.3 -0.7,-0.9 -1.2,-12.8 -1.3,-37.3 l -0.3,-35.9 -18.2,-0.5 c -10,-0.3 -18.5,-0.9 -19,-1.3 -0.4,-0.5 -0.9,-12.3 -1,-26.4 -0.1,-17.7 -0.6,-25.9 -1.4,-26.9 -1.5,-1.8 -14,-1.9 -15.7,-0.2 z"
         id="path8"
         inkscape:connector-curvature="0"
         style="fill:#000000;stroke:none" />
      <path
         d="m 688.84065,115.37578 c -4.8,0 -7.7,0.4 -8.2,1.2 -0.4,0.7 -1,14.1 -1.3,29.8 l -0.5,28.5 -25.4,0.3 c -17.19999,0.1 -25.89999,0.6 -26.79999,1.4 -1,0.8 -1.3,3.1 -1.1,8.2 l 0.3,7.1 22.49999,0.3 c 12.3,0.1 22.9,0.7 23.4,1.2 1.8,1.8 -15.8,20.6 -29.39999,31.6 -4.1,3.3 -10.3,7.8 -13.7,10 -3.4,2.1 -6.4,4.5 -6.7,5.2 -0.5,1.1 2.1,5.1 9.1,14.1 2.1,2.7 30.29999,-21.4 40.09999,-34.4 4.6,-6 6,-7.5 7.5,-7.5 0.4,0 0.7,7.4 0.7,16.5 0,18.9 -0.2,18.5 9.5,18.5 9.5,0 9.6,-0.2 9.5,-13.8 -0.1,-6.4 -0.1,-12.3 -0.1,-13 0.1,-2 2.7,-1.4 6.9,1.5 2.2,1.6 6.1,4.3 8.8,6.2 5.2,3.7 6.8,5 15,12.5 2.9,2.6 5.7,4.4 6.5,4.1 1.9,-0.7 9.4,-13 9.4,-15.2 0,-1.9 -14.8,-12.2 -27.5,-19 -4.1,-2.3 -10,-5.4 -13,-7 -5.2,-2.8 -5.5,-3.2 -5.5,-6.9 l 0,-3.9 24.5,-0.5 24.5,-0.5 0.3,-6 c 0.2,-3.2 0.1,-6.9 -0.3,-8.2 l -0.5,-2.3 -24,0 c -14.9,0 -24.1,-0.4 -24.5,-1 -0.3,-0.6 -0.6,-13.2 -0.5,-28 0,-17.3 -0.3,-27.7 -1,-29 -0.9,-1.7 -2.1,-2 -8.5,-2 z m 37.72968,11.00938 c -1.22632,0.0158 -2.1172,0.24062 -2.52968,0.69062 -0.4,0.3 -0.7,1.4 -0.7,2.4 0,1 -0.6,3.3 -1.4,5.1 -0.8,1.8 -2.9,6.9 -4.7,11.3 -1.8,4.4 -4.6,10.2 -6.2,12.9 -3.3,5.8 -3.1,6.2 5.5,9.9 l 5.6,2.5 2,-2.1 c 4.2,-4.6 16.6,-29.3 17.8,-35.5 0.5,-2.3 0.2,-3.3 -0.7,-3.5 -0.8,-0.3 -3.6,-1.2 -6.4,-2.1 -3.25,-1.0625 -6.22632,-1.61699 -8.27032,-1.59062 z m -79.52968,0.0906 c -0.7,0.1 -4.29999,1.7 -7.99999,3.5 -6.1,3 -6.8,3.7 -6.1,5.7 0.3,1.2 1.2,2.9 1.8,3.7 1.8,2.2 8.9,17.4 12.29999,26.2 1.1,3.1 2.4,4.8 3.5,4.8 3,0 15.3,-5.8 15.6,-7.4 0.4,-1.7 -0.6,-3.9 -9.5,-22.3 -5.5,-11.5 -7.5,-14.4 -9.6,-14.2 z m 167.2,0.025 c -31.35,0.025 -62.8,0.225 -64.1,0.575 -2.1,0.5 -3,4.9 -2.6,11.8 l 0.3,5 27.7,0.5 c 15.2,0.3 28,0.9 28.4,1.3 0.5,0.4 0,3.8 -0.9,7.5 -0.9,3.7 -1.7,7.6 -1.7,8.8 0,3.2 -3.1,11.4 -4.3,11.5 -0.7,0 -8,0 -16.2,-0.1 -8.3,-0.1 -15.8,0.2 -16.8,0.5 -1.6,0.7 -1.7,5.2 -1.7,72.5 0,62.6 0.2,71.90001 1.5,72.40001 2.8,1.1 98.89999,0.5 100.19999,-0.6 2,-1.6 1.9,-142.10001 -0.1,-143.70001 -0.9,-0.8 -8.2,-1.1 -23.6,-1.1 -12.2,0.1 -22.5,-0.1 -22.8,-0.4 -0.5,-0.6 1,-6.6 3,-11.5 0.5,-1.4 1.3,-4.7 1.9,-7.5 0.5,-2.7 1.6,-6 2.5,-7.3 l 1.5,-2.4 25.2,0.1 26.5,0 c 0.8,0 1.2,-2.4 1.2,-8.4 0,-6.7 -0.3,-8.5 -1.6,-9 -0.9,-0.35 -32.15,-0.5 -63.49999,-0.475 z m -0.5,63.875 32.39999,0 0.6,2.2 c 0.9,3.4 0.7,21.1 -0.2,22.6 -0.7,0.9 -8,1.2 -33.29999,1 l -32.4,-0.3 -0.3,-11.4 c -0.1,-6.3 0,-12.1 0.2,-12.8 0.4,-1 7.1,-1.3 33,-1.3 z m 0.3,42 c 30.19999,0 31.29999,0.1 32.29999,2 0.6,1.2 0.9,6.5 0.8,12.7 l -0.3,10.8 -33.19999,0.3 -33.3,0.2 0,-11.8 c 0,-7.8 0.4,-12.2 1.2,-13 0.9,-0.9 9.5,-1.2 32.5,-1.2 z M 690.31409,255.4492 c -3.82912,-0.0352 -7.98592,0.33906 -9.17344,1.02656 -1.5,0.8 -1.8,2.5 -1.8,10.8 0,7 -0.4,10.2 -1.3,11 -0.9,0.7 -10.1,1.2 -26.8,1.3 l -25.39999,0.3 -0.3,6.8 c -0.2,4.2 0.2,7.4 0.9,8.3 0.9,1.1 5.8,1.4 26.09999,1.4 21.7,0 24.9,0.2 25.5,1.6 0.9,2.4 -2.5,12.8 -7.5,23.10001 -7,14.6 -21.3,28.6 -38.69999,37.9 -2.1,1.2 -4.1,2.6 -4.2,3.1 -0.5,1.3 9.1,12.9 11.2,13.7 2.1,0.8 4,-0.1 12.19999,-5.7 14.7,-9.9 29,-25.6 35.8,-39 1.7,-3.3 3.6,-6.1 4.3,-6.4 0.7,-0.3 2.7,0.6 4.6,2 4.2,3.2 21.6,20.7 26.3,26.4 2,2.4 4.1,4.3 4.8,4.3 1.5,0 12.8,-11.5 13.3,-13.4 0.5,-2.4 -20.9,-21.1 -39.3,-34.50001 -4.5,-3.1 -4.7,-3.5 -4,-7 0.4,-2 1.1,-4.2 1.7,-4.9 0.8,-0.9 6.9,-1.2 24.4,-1.2 l 23.4,0 0.5,-2.3 c 0.4,-1.3 0.5,-5 0.3,-8.2 l -0.3,-6 -23,-0.3 c -20.2,-0.2 -23.2,-0.4 -24.2,-1.9 -0.8,-1.1 -1.3,-5.2 -1.3,-11.4 0,-9.2 -0.1,-9.7 -2.2,-10.3 -1.35,-0.3375 -3.52912,-0.50547 -5.82656,-0.52656 z m 123.12656,18.92656 c 26.59999,0 30.99999,0.2 32.29999,1.6 1.3,1.2 1.6,3.8 1.6,11.7 0,5.6 -0.3,11.2 -0.6,12.5 l -0.6,2.2 -32.69999,-0.2 -32.6,-0.3 -0.3,-12.4 c -0.2,-8.2 0.1,-12.8 0.9,-13.7 0.9,-1.1 6.9,-1.4 32,-1.4 z m -25.4,47.00001 c -0.1,0 -4,3.9 -8.5,8.5 -12,12.2 -26.7,23.7 -37.9,29.5 -2.4,1.2 -4.3,2.9 -4.3,3.7 0,0.8 2.4,4.1 5.3,7.4 6,7 7.3,7.1 15.3,1.8 16.3,-10.9 41.2,-32.5 44.3,-38.6 1,-1.9 0.4,-2.5 -6.4,-7.2 -4.2,-2.8 -7.7,-5.1 -7.8,-5.1 z m 47.49999,0.1 c -0.4,0 -3,1.7 -5.7,3.8 -8.6,6.5 -8.6,6.2 -0.3,12.7 10.1,8.1 13.7,11.3 26.1,23.6 5.9,6 11.6,10.8 12.5,10.8 2,-0.1 14.1,-9.5 14.9,-11.7 0.7,-1.7 -3.4,-5.7 -17.1,-17.1 -13.4,-11.1 -28.7,-22.3 -30.4,-22.1 z"
         id="path10"
         inkscape:connector-curvature="0"
         style="fill:#000000;stroke:none" />
      <path
         d="m 218.25619,128.93092 c -8.4,2.7 -37.3,8.4 -61,12 -30.9,4.7 -89.299991,10.7 -103.699991,10.6 -3.7,0 -6.9,0.4 -7.3,1 -0.3,0.5 1.1,4.4 3.2,8.7 l 3.8,7.79998 7.5,0.3 c 7,0.4 29.1,-1.3 52.500001,-3.99998 18.89999,-2.1 27.99999,-2.6 29.29999,-1.5 1.7,1.3 1.7,38.79998 0,40.49998 -0.9,0.9 -13.5,1.2 -50.499991,1.2 l -49.4,0 0.3,8.7 0.3,8.8 48.9,0.3 c 34.099991,0.1 49.299991,0.6 50.299991,1.3 1.6,1.4 1.9,37.9 0.3,41 -1,1.8 -2.8,1.9 -60.899991,1.9 -53.7,0 -59.9,0.2 -60.5,1.6 -1.1,2.8 -0.6,14 0.7,15.7 1.1,1.6 6.2,1.7 61.2,1.9 l 59.999991,0.3 0.3,24 c 0.2,13.2 0,25.5 -0.3,27.4 -0.4,1.8 -1.7,4.4 -3,5.7 -2.3,2.3 -3,2.4 -16.89999,2.4 -8.7,0 -17.5,-0.6 -22.3,-1.5 -4.300001,-0.8 -9.700001,-1.5 -12.000001,-1.5 -5.1,0 -5.2,0.3 -2.6,12.7 1.4,6.7 2.1,8.3 3.7,8.7 6.9,1.6 26.400001,2.7 40.599991,2.4 18.2,-0.4 23.3,-1.8 28.6,-7.5 5.7,-6.1 5.8,-7.2 6.2,-41.6 l 0.3,-31.7 55.7,0 c 30.6,0 56.3,-0.4 57,-0.9 0.9,-0.5 1.2,-3.1 1,-9.2 l -0.3,-8.4 -56.5,-0.5 -56.5,-0.5 0,-21.5 0,-21.5 46,-0.5 46,-0.5 0,-8.5 0,-8.5 -46,-0.5 -46,-0.5 0,-23 0,-22.99998 5.5,-0.8 c 16.7,-2.3 41,-6.5 48.1,-8.3 3,-0.8 6.5,-1.4 7.7,-1.4 3.9,0 14.2,-3.3 14.2,-4.5 0,-1.9 -15.6,-16.5 -17.6,-16.4 -1.1,0 -3.7,0.6 -5.9,1.3 z"
         id="path18"
         inkscape:connector-curvature="0"
         style="fill:#000000;stroke:none" />
      <path
         d="m 1132.5599,631.04218 33.4633,-8.7387 4.7704,-90.8651 -75.5626,-51.3576 -26.8266,19.66218 47.2895,46.18034 C 661.75697,694.37348 207.8201,655.52218 -246.11678,541.45766 l 3e-5,27.83199 c 432.56365,135.16523 894.8902,176.66643 1377.29635,0.0963 z"
         style="font-style:normal;font-variant:normal;font-weight:normal;font-stretch:normal;font-size:500px;line-height:125%;font-family:IPAexゴシック;-inkscape-font-specification:IPAexゴシック;letter-spacing:0px;word-spacing:0px;fill:#000000;fill-opacity:1;stroke:none;stroke-width:1px;stroke-linecap:butt;stroke-linejoin:miter;stroke-opacity:1"
         id="path3483-6"
         inkscape:connector-curvature="0"
         sodipodi:nodetypes="cccccccccc" />
      <path
         d="m -206.69732,-132.94207 -33.46331,8.73873 -4.77039,90.865045 75.56259,51.3576 26.82657,-19.6621796 -47.2894,-46.1803304 c 216.259872,-70.723075 432.51974,-98.935095 648.77962,-96.755985 237.67701,2.39492 475.35402,41.49854 713.03104,101.221615 l 0,-27.83199 C 739.41569,-206.35483 277.08914,-247.85593 -205.31707,-71.285865 Z"
         style="font-style:normal;font-variant:normal;font-weight:normal;font-stretch:normal;font-size:500px;line-height:125%;font-family:IPAexゴシック;-inkscape-font-specification:IPAexゴシック;letter-spacing:0px;word-spacing:0px;fill:#000000;fill-opacity:1;stroke:none;stroke-width:1px;stroke-linecap:butt;stroke-linejoin:miter;stroke-opacity:1"
         id="path3483-6-0"
         inkscape:connector-curvature="0"
         sodipodi:nodetypes="ccccccscccc" />
    </g>
  </g>
</svg>
