<?xml version="1.0" encoding="UTF-8" standalone="no"?>
<svg
   xmlns:dc="http://purl.org/dc/elements/1.1/"
   xmlns:cc="http://creativecommons.org/ns#"
   xmlns:rdf="http://www.w3.org/1999/02/22-rdf-syntax-ns#"
   xmlns:svg="http://www.w3.org/2000/svg"
   xmlns="http://www.w3.org/2000/svg"
   xmlns:sodipodi="http://sodipodi.sourceforge.net/DTD/sodipodi-0.dtd"
   xmlns:inkscape="http://www.inkscape.org/namespaces/inkscape"
   version="1.0"
   width="297mm"
   height="210mm"
   viewBox="0 0 841.88976 595.27559"
   preserveAspectRatio="xMidYMid meet"
   id="svg2"
   inkscape:version="0.91 r13725"
   sodipodi:docname="svg_logo2.svg"
   inkscape:export-filename="/Users/shiradomasafumi/Documents/手帳類/logo/svg_logo2.png"
   inkscape:export-xdpi="90"
   inkscape:export-ydpi="90">
  <defs
     id="defs28">
    <inkscape:path-effect
       effect="skeletal"
       id="path-effect3492"
       is_visible="true"
       pattern="M 0,0 1,0"
       copytype="single_stretched"
       prop_scale="1"
       scale_y_rel="false"
       spacing="0"
       normal_offset="0"
       tang_offset="0"
       prop_units="false"
       vertical_pattern="false"
       fuse_tolerance="0" />
  </defs>
  <sodipodi:namedview
     pagecolor="#ca6464"
     bordercolor="#666666"
     borderopacity="1"
     objecttolerance="10"
     gridtolerance="10"
     guidetolerance="10"
     inkscape:pageopacity="0"
     inkscape:pageshadow="2"
     inkscape:window-width="1680"
     inkscape:window-height="949"
     id="namedview26"
     showgrid="false"
     inkscape:zoom="0.49859259"
     inkscape:cx="79.793326"
     inkscape:cy="404.67497"
     inkscape:window-x="0"
     inkscape:window-y="1"
     inkscape:window-maximized="1"
     inkscape:current-layer="g3633"
     units="mm" />
  <metadata
     id="metadata4">
Created by potrace 1.10, written by Peter Selinger 2001-2011
<rdf:RDF>
  <cc:Work
     rdf:about="">
    <dc:format>image/svg+xml</dc:format>
    <dc:type
       rdf:resource="http://purl.org/dc/dcmitype/StillImage" />
    <dc:title></dc:title>
  </cc:Work>
</rdf:RDF>
</metadata>
  <g
     transform="matrix(0.1,0,0,-0.1,175.74803,651.9685)"
     id="g6"
     style="fill:#ffffff;stroke:none" />
  <text
     xml:space="preserve"
     style="font-style:normal;font-weight:normal;font-size:32px;line-height:125%;font-family:sans-serif;letter-spacing:0px;word-spacing:0px;fill:#000000;fill-opacity:1;stroke:none;stroke-width:1px;stroke-linecap:butt;stroke-linejoin:miter;stroke-opacity:1"
     x="185.6693"
     y="143.1496"
     id="text3474"
     sodipodi:linespacing="125%"><tspan
       sodipodi:role="line"
       id="tspan3476"
       x="185.6693"
       y="143.1496" /></text>
  <g
     id="g3588"
     transform="matrix(0.38464046,0,0,0.38949448,241.29941,211.18215)">
    <g
       id="g3633"
       transform="translate(12.514412,-39.135102)">
      <path
         d="m 366.66463,117.36515 c -0.9,0.9 -1.2,8.2 -1.2,26.9 0,20 -0.3,25.9 -1.3,26.8 -0.8,0.6 -7.7,1.2 -17.8,1.3 l -16.4,0.3 0,73 0,73 8.5,0 8.5,0 0.5,-64 0.5,-64 8.5,0 8.5,0 0.5,92.5 0.5,92.49999 7.9,0.3 c 4.4,0.2 8.3,-0.1 8.8,-0.6 0.5,-0.5 0.8,-41.09999 0.8,-91.89999 0,-77.3 0.2,-91.2 1.4,-92.2 0.9,-0.8 4.5,-1.1 10.3,-0.9 l 8.8,0.3 0.3,51.7 c 0.2,51.3 0.2,51.8 -1.9,53.9 -1.7,1.7 -2.7,1.9 -6.2,1.3 -7.6,-1.3 -7.2,-1.7 -7.1,6.9 0,10.4 0.7,11 12.7,11.5 10.3,0.5 13.1,-0.4 17.7,-5.3 2.5,-2.6 2.5,-2.9 2.9,-23.8 0.2,-14.5 0.7,-21.4 1.5,-21.9 1.9,-1.3 20.1,-0.9 21.4,0.4 0.9,0.9 1.2,11.6 1.2,42.1 l 0,40.8 -3.5,1.4 c -1.9,0.8 -6.5,1.9 -10.3,2.5 -12.8,1.79999 -13.6,2.49999 -11,9.29999 1.1,2.9 2.3,6.4 2.5,8 1.1,5.7 3.9,5.6 29.8,-1 14.3,-3.7 35.5,-9.7 41.5,-11.8 1.9,-0.7 5.1,-1.8 7,-2.4 1.9,-0.7 4.9,-1.59999 6.5,-1.99999 1.7,-0.4 4,-1.4 5.3,-2.2 2,-1.2 2.1,-1.9 1.5,-6.4 -1.2,-9.1 -1.6,-10 -4.9,-9.7 -1.6,0.2 -5.1,1 -7.9,1.8 -7.5,2.2 -14.3,4.1 -21,5.8 -3.3,0.8 -8,2 -10.3,2.6 -2.4,0.6 -4.7,0.8 -5,0.5 -0.4,-0.4 -0.8,-18 -1,-39.2 -0.2,-28.6 0,-38.9 0.9,-39.9 0.9,-1.1 3.4,-1.4 10.8,-1.2 l 9.6,0.3 3.6,10.9 c 2,6 4.1,11.7 4.7,12.7 0.7,1 1.2,2.3 1.2,2.9 0,1.5 5.9,13.7 9.4,19.5 8.7,14.4 25.8,32.8 41.1,44.19999 10.9,8.1 22.8,15.3 25.2,15.3 1.3,0 3.8,-2.5 7.6,-7.9 3.2,-4.3 5.7,-8.1 5.7,-8.5 0,-0.4 -2.4,-1.79999 -5.2,-3.19999 -2.9,-1.4 -6.2,-3 -7.3,-3.7 -1.1,-0.6 -4.2,-2.5 -7,-4.1 -12.4,-7.4 -31.5,-23.6 -31.5,-26.8 0,-0.8 3,-3.6 6.8,-6.4 10.8,-7.9 30.2,-25.4 30.2,-27.2 -0.1,-2.3 -12.5,-11.2 -15.6,-11.2 -1.3,0 -2.4,0.3 -2.4,0.7 0,0.9 -15.5,17.1 -23.6,24.7 -7,6.5 -7.1,6.5 -14.9,-9.3 -4.5,-9.3 -7.9,-19.5 -7.2,-21.6 0.6,-1.3 5.1,-1.5 37.1,-1.5 41.6,0 38.6,0.7 38.6,-8.9 0,-8.9 5.9,-8.1 -58.6,-8.1 -55.7,0 -57.4,-0.1 -58.4,-1.9 -1.1,-2.1 -1.4,-15.2 -0.4,-18.8 l 0.6,-2.3 44.7,-0.2 44.6,-0.3 0.3,-7.8 0.3,-7.7 -44.5,0 c -51.7,0 -46.9,1.3 -46.4,-12.3 l 0.3,-8.2 45,-0.5 45,-0.5 0,-8.5 0,-8.5 -45,-0.5 -45,-0.5 -0.3,-8.2 c -0.5,-13.6 -6.1,-12.2 52.1,-12.5 l 50.2,-0.3 0.3,-6.8 c 0.2,-4.2 -0.2,-7.4 -0.9,-8.3 -1,-1.2 -10.5,-1.4 -59.4,-1.4 -32.1,0 -59,0.3 -59.9,0.6 -1.4,0.6 -1.6,6.4 -1.6,56.1 0,36.3 -0.4,56.1 -1,57.4 -1,1.7 -2.2,1.9 -10.9,1.9 -7,0 -10.2,-0.4 -11,-1.3 -0.7,-0.9 -1.2,-12.8 -1.3,-37.3 l -0.3,-35.9 -18.2,-0.5 c -10,-0.3 -18.5,-0.9 -19,-1.3 -0.4,-0.5 -0.9,-12.3 -1,-26.4 -0.1,-17.7 -0.6,-25.9 -1.4,-26.9 -1.5,-1.8 -14,-1.9 -15.7,-0.2 z"
         id="path8"
         inkscape:connector-curvature="0"
         style="fill:#000000;stroke:none" />
      <path
         d="m 688.84065,115.37578 c -4.8,0 -7.7,0.4 -8.2,1.2 -0.4,0.7 -1,14.1 -1.3,29.8 l -0.5,28.5 -25.4,0.3 c -17.19999,0.1 -25.89999,0.6 -26.79999,1.4 -1,0.8 -1.3,3.1 -1.1,8.2 l 0.3,7.1 22.49999,0.3 c 12.3,0.1 22.9,0.7 23.4,1.2 1.8,1.8 -15.8,20.6 -29.39999,31.6 -4.1,3.3 -10.3,7.8 -13.7,10 -3.4,2.1 -6.4,4.5 -6.7,5.2 -0.5,1.1 2.1,5.1 9.1,14.1 2.1,2.7 30.29999,-21.4 40.09999,-34.4 4.6,-6 6,-7.5 7.5,-7.5 0.4,0 0.7,7.4 0.7,16.5 0,18.9 -0.2,18.5 9.5,18.5 9.5,0 9.6,-0.2 9.5,-13.8 -0.1,-6.4 -0.1,-12.3 -0.1,-13 0.1,-2 2.7,-1.4 6.9,1.5 2.2,1.6 6.1,4.3 8.8,6.2 5.2,3.7 6.8,5 15,12.5 2.9,2.6 5.7,4.4 6.5,4.1 1.9,-0.7 9.4,-13 9.4,-15.2 0,-1.9 -14.8,-12.2 -27.5,-19 -4.1,-2.3 -10,-5.4 -13,-7 -5.2,-2.8 -5.5,-3.2 -5.5,-6.9 l 0,-3.9 24.5,-0.5 24.5,-0.5 0.3,-6 c 0.2,-3.2 0.1,-6.9 -0.3,-8.2 l -0.5,-2.3 -24,0 c -14.9,0 -24.1,-0.4 -24.5,-1 -0.3,-0.6 -0.6,-13.2 -0.5,-28 0,-17.3 -0.3,-27.7 -1,-29 -0.9,-1.7 -2.1,-2 -8.5,-2 z m 37.72968,11.00938 c -1.22632,0.0158 -2.1172,0.24062 -2.52968,0.69062 -0.4,0.3 -0.7,1.4 -0.7,2.4 0,1 -0.6,3.3 -1.4,5.1 -0.8,1.8 -2.9,6.9 -4.7,11.3 -1.8,4.4 -4.6,10.2 -6.2,12.9 -3.3,5.8 -3.1,6.2 5.5,9.9 l 5.6,2.5 2,-2.1 c 4.2,-4.6 16.6,-29.3 17.8,-35.5 0.5,-2.3 0.2,-3.3 -0.7,-3.5 -0.8,-0.3 -3.6,-1.2 -6.4,-2.1 -3.25,-1.0625 -6.22632,-1.61699 -8.27032,-1.59062 z m -79.52968,0.0906 c -0.7,0.1 -4.29999,1.7 -7.99999,3.5 -6.1,3 -6.8,3.7 -6.1,5.7 0.3,1.2 1.2,2.9 1.8,3.7 1.8,2.2 8.9,17.4 12.29999,26.2 1.1,3.1 2.4,4.8 3.5,4.8 3,0 15.3,-5.8 15.6,-7.4 0.4,-1.7 -0.6,-3.9 -9.5,-22.3 -5.5,-11.5 -7.5,-14.4 -9.6,-14.2 z m 167.2,0.025 c -31.35,0.025 -62.8,0.225 -64.1,0.575 -2.1,0.5 -3,4.9 -2.6,11.8 l 0.3,5 27.7,0.5 c 15.2,0.3 28,0.9 28.4,1.3 0.5,0.4 0,3.8 -0.9,7.5 -0.9,3.7 -1.7,7.6 -1.7,8.8 0,3.2 -3.1,11.4 -4.3,11.5 -0.7,0 -8,0 -16.2,-0.1 -8.3,-0.1 -15.8,0.2 -16.8,0.5 -1.6,0.7 -1.7,5.2 -1.7,72.5 0,62.6 0.2,71.90001 1.5,72.40001 2.8,1.1 98.89999,0.5 100.19999,-0.6 2,-1.6 1.9,-142.10001 -0.1,-143.70001 -0.9,-0.8 -8.2,-1.1 -23.6,-1.1 -12.2,0.1 -22.5,-0.1 -22.8,-0.4 -0.5,-0.6 1,-6.6 3,-11.5 0.5,-1.4 1.3,-4.7 1.9,-7.5 0.5,-2.7 1.6,-6 2.5,-7.3 l 1.5,-2.4 25.2,0.1 26.5,0 c 0.8,0 1.2,-2.4 1.2,-8.4 0,-6.7 -0.3,-8.5 -1.6,-9 -0.9,-0.35 -32.15,-0.5 -63.49999,-0.475 z m -0.5,63.875 32.39999,0 0.6,2.2 c 0.9,3.4 0.7,21.1 -0.2,22.6 -0.7,0.9 -8,1.2 -33.29999,1 l -32.4,-0.3 -0.3,-11.4 c -0.1,-6.3 0,-12.1 0.2,-12.8 0.4,-1 7.1,-1.3 33,-1.3 z m 0.3,42 c 30.19999,0 31.29999,0.1 32.29999,2 0.6,1.2 0.9,6.5 0.8,12.7 l -0.3,10.8 -33.19999,0.3 -33.3,0.2 0,-11.8 c 0,-7.8 0.4,-12.2 1.2,-13 0.9,-0.9 9.5,-1.2 32.5,-1.2 z M 690.31409,255.4492 c -3.82912,-0.0352 -7.98592,0.33906 -9.17344,1.02656 -1.5,0.8 -1.8,2.5 -1.8,10.8 0,7 -0.4,10.2 -1.3,11 -0.9,0.7 -10.1,1.2 -26.8,1.3 l -25.39999,0.3 -0.3,6.8 c -0.2,4.2 0.2,7.4 0.9,8.3 0.9,1.1 5.8,1.4 26.09999,1.4 21.7,0 24.9,0.2 25.5,1.6 0.9,2.4 -2.5,12.8 -7.5,23.10001 -7,14.6 -21.3,28.6 -38.69999,37.9 -2.1,1.2 -4.1,2.6 -4.2,3.1 -0.5,1.3 9.1,12.9 11.2,13.7 2.1,0.8 4,-0.1 12.19999,-5.7 14.7,-9.9 29,-25.6 35.8,-39 1.7,-3.3 3.6,-6.1 4.3,-6.4 0.7,-0.3 2.7,0.6 4.6,2 4.2,3.2 21.6,20.7 26.3,26.4 2,2.4 4.1,4.3 4.8,4.3 1.5,0 12.8,-11.5 13.3,-13.4 0.5,-2.4 -20.9,-21.1 -39.3,-34.50001 -4.5,-3.1 -4.7,-3.5 -4,-7 0.4,-2 1.1,-4.2 1.7,-4.9 0.8,-0.9 6.9,-1.2 24.4,-1.2 l 23.4,0 0.5,-2.3 c 0.4,-1.3 0.5,-5 0.3,-8.2 l -0.3,-6 -23,-0.3 c -20.2,-0.2 -23.2,-0.4 -24.2,-1.9 -0.8,-1.1 -1.3,-5.2 -1.3,-11.4 0,-9.2 -0.1,-9.7 -2.2,-10.3 -1.35,-0.3375 -3.52912,-0.50547 -5.82656,-0.52656 z m 123.12656,18.92656 c 26.59999,0 30.99999,0.2 32.29999,1.6 1.3,1.2 1.6,3.8 1.6,11.7 0,5.6 -0.3,11.2 -0.6,12.5 l -0.6,2.2 -32.69999,-0.2 -32.6,-0.3 -0.3,-12.4 c -0.2,-8.2 0.1,-12.8 0.9,-13.7 0.9,-1.1 6.9,-1.4 32,-1.4 z m -25.4,47.00001 c -0.1,0 -4,3.9 -8.5,8.5 -12,12.2 -26.7,23.7 -37.9,29.5 -2.4,1.2 -4.3,2.9 -4.3,3.7 0,0.8 2.4,4.1 5.3,7.4 6,7 7.3,7.1 15.3,1.8 16.3,-10.9 41.2,-32.5 44.3,-38.6 1,-1.9 0.4,-2.5 -6.4,-7.2 -4.2,-2.8 -7.7,-5.1 -7.8,-5.1 z m 47.49999,0.1 c -0.4,0 -3,1.7 -5.7,3.8 -8.6,6.5 -8.6,6.2 -0.3,12.7 10.1,8.1 13.7,11.3 26.1,23.6 5.9,6 11.6,10.8 12.5,10.8 2,-0.1 14.1,-9.5 14.9,-11.7 0.7,-1.7 -3.4,-5.7 -17.1,-17.1 -13.4,-11.1 -28.7,-22.3 -30.4,-22.1 z"
         id="path10"
         inkscape:connector-curvature="0"
         style="fill:#000000;stroke:none" />
      <path
         d="m 218.25619,128.93092 c -8.4,2.7 -37.3,8.4 -61,12 -30.9,4.7 -89.299991,10.7 -103.699991,10.6 -3.7,0 -6.9,0.4 -7.3,1 -0.3,0.5 1.1,4.4 3.2,8.7 l 3.8,7.79998 7.5,0.3 c 7,0.4 29.1,-1.3 52.500001,-3.99998 18.89999,-2.1 27.99999,-2.6 29.29999,-1.5 1.7,1.3 1.7,38.79998 0,40.49998 -0.9,0.9 -13.5,1.2 -50.499991,1.2 l -49.4,0 0.3,8.7 0.3,8.8 48.9,0.3 c 34.099991,0.1 49.299991,0.6 50.299991,1.3 1.6,1.4 1.9,37.9 0.3,41 -1,1.8 -2.8,1.9 -60.899991,1.9 -53.7,0 -59.9,0.2 -60.5,1.6 -1.1,2.8 -0.6,14 0.7,15.7 1.1,1.6 6.2,1.7 61.2,1.9 l 59.999991,0.3 0.3,24 c 0.2,13.2 0,25.5 -0.3,27.4 -0.4,1.8 -1.7,4.4 -3,5.7 -2.3,2.3 -3,2.4 -16.89999,2.4 -8.7,0 -17.5,-0.6 -22.3,-1.5 -4.300001,-0.8 -9.700001,-1.5 -12.000001,-1.5 -5.1,0 -5.2,0.3 -2.6,12.7 1.4,6.7 2.1,8.3 3.7,8.7 6.9,1.6 26.400001,2.7 40.599991,2.4 18.2,-0.4 23.3,-1.8 28.6,-7.5 5.7,-6.1 5.8,-7.2 6.2,-41.6 l 0.3,-31.7 55.7,0 c 30.6,0 56.3,-0.4 57,-0.9 0.9,-0.5 1.2,-3.1 1,-9.2 l -0.3,-8.4 -56.5,-0.5 -56.5,-0.5 0,-21.5 0,-21.5 46,-0.5 46,-0.5 0,-8.5 0,-8.5 -46,-0.5 -46,-0.5 0,-23 0,-22.99998 5.5,-0.8 c 16.7,-2.3 41,-6.5 48.1,-8.3 3,-0.8 6.5,-1.4 7.7,-1.4 3.9,0 14.2,-3.3 14.2,-4.5 0,-1.9 -15.6,-16.5 -17.6,-16.4 -1.1,0 -3.7,0.6 -5.9,1.3 z"
         id="path18"
         inkscape:connector-curvature="0"
         style="fill:#000000;stroke:none" />
      <path
         id="path3375"
         d="m 723.06098,-283.96875 c 11.24084,0.33931 22.49097,0.24454 33.73607,0.28554 12.00117,0.0838 24.00253,-0.038 36.00345,-0.10886 12.30236,0.0879 24.6048,0.10598 36.90736,0.15774 17.94503,0.25765 35.90218,-0.22361 53.81408,0.95595 18.8038,1.47999 37.63669,2.43212 56.49124,2.93741 15.27456,1.82869 30.70693,0.77602 46.04909,0.63128 13.33983,3.30319 27.45753,1.16843 40.58693,4.99028 13.7779,3.26208 27.5572,6.61812 41.3357,10.08698 12.1679,3.75973 25.1183,5.28854 37.0536,9.64925 10.3157,4.93045 20.9222,8.64437 31.7037,12.32131 1.407,0.9938 2.7204,2.13164 4.2211,2.98144 1.1865,0.67189 2.6581,0.79529 3.7892,1.55463 1.5731,1.05604 2.6971,2.66417 4.2036,3.81103 1.1979,0.91197 2.6992,1.39332 3.8718,2.33677 10.4668,8.42122 -1.918,0.18014 7.0176,5.88312 6.9259,4.34713 13.4755,9.39207 18.5496,15.79204 8.7475,9.95499 16.5186,20.64504 26.5222,29.43873 10.9175,9.32932 19.5916,20.67677 28.2858,31.97566 6.3103,8.11953 12.1488,16.55681 18.0857,24.93941 5.2348,8.98284 6.829,19.29344 9.7428,29.085966 2.4447,13.272671 6.9835,26.053771 10.3211,39.121171 4.0173,12.950859 5.3227,26.402244 7.5384,39.704758 2.1927,11.5720068 3.2604,23.1450768 3.5392,34.895547 -0.042,13.85511 -0.3108,27.71184 -0.4387,41.56921 0,11.14932 0.026,22.29992 0.2759,33.44717 0.8647,9.967768 -1.2583,19.637328 -2.662,29.430948 -2.8905,13.96238 -4.2924,28.21487 -8.115,41.97174 -3.4391,14.11281 -6.9994,28.19151 -10.787,42.23022 -3.8306,15.10496 -8.9694,29.82229 -13.4894,44.72528 -4.1654,15.76304 -10.888,30.62667 -16.9189,45.73027 -6.7757,13.69983 -15.2334,26.53977 -22.5505,39.99888 -6.2752,11.61806 -13.9331,22.40303 -21.003,33.53426 -4.4361,7.38136 -9.1884,14.5197 -13.1839,22.15561 -6.4793,8.41296 -12.3004,17.27211 -19.4295,25.17094 -5.1977,6.68276 -11.0394,12.70435 -17.3113,18.40515 -10.0911,10.82803 -21.1075,20.76438 -32.2645,30.50194 -14.5702,12.42947 -27.8771,26.13496 -42.4269,38.59331 -10.5928,9.87836 -21.9761,18.87388 -33.7463,27.33701 -14.6755,10.67113 -30.51024,19.57083 -46.00097,29.00492 -26.01763,14.71218 -52.03209,29.42982 -78.0529,44.13654 -69.54884,39.30832 235.50187,-132.78186 -27.18364,15.27695 -11.06617,6.23729 -8.49793,4.77681 -19.85414,10.25852 -3.23533,1.50378 -6.51532,2.91726 -9.70604,4.51133 -8.84628,4.41955 -7.92016,4.85669 -17.16009,8.59025 -9.98628,4.03514 -20.65247,6.60694 -30.9494,9.72966 -18.3105,5.41615 -36.86208,9.98804 -55.11626,15.55487 -5.12268,1.73016 -10.65113,1.99411 -15.79834,3.62819 -2.19818,0.69785 -4.14487,2.07134 -6.36401,2.70126 -2.60763,0.74021 -5.37699,0.76976 -8.01856,1.38136 -21.03298,4.86985 5.02418,0.22467 -17.90865,3.97426 -23.00515,3.98143 -46.18218,7.06982 -69.29765,10.41535 -26.13608,4.5575 -52.399,8.25669 -78.67651,11.92085 -28.43994,4.70836 -57.1903,7.09831 -85.97022,8.48474 -27.32507,0.78456 -54.6617,1.05441 -81.99665,0.84364 -31.50727,-0.22532 -63.01461,-0.20478 -94.52231,-0.17582 -28.60151,0.0435 -57.2021,0.11235 -85.80358,0.15425 -25.83266,0.0624 -51.66543,0.0462 -77.49835,0.0723 -26.010658,-0.0144 -52.020423,-0.0604 -78.031207,-0.0329 -27.802837,-0.0263 -55.605071,-0.19061 -83.408012,-0.0635 -22.895022,0.38008 -45.716252,0.4964 -68.557221,-1.08948 -17.91468,-2.10145 -35.36202,-7.4364 -52.08793,-13.99264 -8.23774,-4.84687 -18.15622,-5.18588 -26.55453,-9.5115 -4.12599,-2.12516 -7.99782,-4.70522 -12.08883,-6.89534 -11.52765,-6.29339 -20.55591,-15.78736 -30.06704,-24.58358 -8.10182,-9.73311 -14.84539,-20.40955 -22.63667,-30.40324 -8.70652,-10.85549 -16.87918,-22.34918 -23.78385,-34.41752 -4.7044,-9.33863 -10.14368,-18.24665 -16.18831,-26.79547 -6.72456,-9.37973 -9.8111,-20.12102 -13.4083,-30.86783 -4.05778,-13.83964 -8.8975,-27.39284 -12.80047,-41.28327 -3.41189,-12.51863 -4.02135,-25.5452 -4.48412,-38.43538 -0.72481,-12.33628 -2.37594,-24.59788 -3.50424,-36.904 -0.86558,-11.10535 -0.74108,-22.26472 -0.68448,-33.39552 -0.37255,-11.44983 -0.25793,-22.80155 0.89779,-34.20006 0.6448,-11.42923 3.38171,-22.49901 5.23874,-33.73795 0.88444,-10.84341 4.53787,-21.12905 7.17054,-31.62222 4.70478,-13.87951 10.37957,-27.41027 15.38332,-41.19428 6.44548,-16.49194 13.38006,-32.77033 20.48078,-48.99135 4.67416,-12.60833 10.11099,-24.85583 16.251,-36.83475 7.111,-14.39244 14.90764,-28.41192 23.77585,-41.81789 10.21525,-14.82956 20.48828,-29.628578 31.01464,-44.246028 8.60137,-12.81659 17.28305,-25.44963 27.02179,-37.45134 6.72185,-8.15446 13.9149,-15.89724 20.31861,-24.30214 6.24554,-8.5627302 13.25125,-16.6184102 20.61073,-24.283295 11.09836,-10.729908 22.67824,-21.027297 35.07059,-30.282411 8.850549,-6.413257 17.738079,-12.723672 26.530169,-19.214855 7.27455,-5.713437 14.375,-11.666076 21.90981,-17.034984 32.206616,-20.919527 65.393764,-40.870697 101.076874,-55.354257 10.67114,-5.54745 23.419544,-7.24662 33.505867,-13.72406 11.729791,-3.61987 24.11149,-5.35001 35.24994,-10.53405 13.24152,-3.60095 26.89528,-5.77029 40.52289,-7.42238 15.50073,-4.49505 31.74587,-4.27762 47.41773,-8.0744 12.9562,-1.62163 25.9191,-1.84944 38.76262,-4.18654 11.38742,-2.57067 22.99583,-2.07415 34.51526,-3.39379 7.21715,-1.51922 14.79732,-1.16036 22.023,-2.5061 9.155,-1.70506 -1.17402,-0.9763 8.31861,-1.3282 6.80232,-0.0939 13.59665,0.34701 20.39787,0.45833 7.05301,0.13577 14.10749,0.14481 21.16098,0.24108 7.21858,-0.1103 14.43723,2.8e-4 21.65548,-0.10763 7.55619,-5.6e-4 15.1129,0.0744 22.66888,0.15322 11.15373,0.0144 22.30653,0.11564 33.4603,0.083 8.75931,-0.11974 17.52017,-0.0912 26.27959,-0.21051 4.19583,-0.0715 8.39033,-0.12118 12.58686,-0.15384 4.50201,-0.0316 9.00529,0.0883 13.50813,0.18424 6.40251,0.12201 12.80652,-0.15528 19.20686,-0.10187 5.60012,0.0448 11.20055,0.0103 16.8008,0.0185 6.23541,0.052 12.47629,0.1637 18.70967,-0.0559 6.56151,0.21194 13.14384,-1.63823 19.37637,-3.61876 7.76278,-0.96552 15.39282,-2.83389 23.09986,-4.23912 0,0 -65.96753,49.11371 -65.96753,49.11371 l 0,0 c -7.47674,1.2716 -14.92178,2.81177 -22.31256,4.47904 -7.00817,1.47175 -13.97567,2.75861 -21.18602,2.32958 -6.18057,-0.24129 -12.37112,-0.0898 -18.55418,-0.0559 -5.61771,0.008 -11.23559,-0.0259 -16.85316,0.0185 -6.30569,0.0515 -12.61508,-0.22394 -18.92311,-0.10187 -4.67399,0.0941 -9.34878,0.21303 -14.02167,0.18424 -4.05376,-0.0323 -8.10515,-0.0811 -12.1581,-0.15384 -8.56376,-0.12139 -17.12908,-0.0889 -25.69271,-0.21055 -11.23108,-0.0331 -22.46118,0.0696 -33.6922,0.0838 -7.70012,0.0787 -15.40088,0.15445 -23.1012,0.15836 -7.12056,-0.10845 -14.2416,0.0123 -21.36225,-0.13166 -7.18482,0.0565 -14.37157,0.0273 -21.5538,-0.19122 -6.5118,-0.22606 -13.06125,-0.47796 -19.55066,0.25052 -9.82742,1.77512 -19.88332,2.07853 -29.79196,3.27719 -11.6201,0.75006 -23.11848,2.0774 -34.59078,4.09632 -12.60652,1.58185 -25.43714,1.2137 -37.88669,4.07049 -15.89998,2.78014 -32.09216,3.73442 -47.796323,7.68395 -13.350254,2.11453 -26.879065,4.17936 -39.543277,9.02925 -11.75895,3.68577 -24.021601,6.15064 -35.189475,11.433964 -11.2796871,4.14944 -22.5821271,8.25318 -33.551332,13.169584 -1.935959,0.865737 -9.365443,4.176018 -11.170245,5.033663 -1.880364,0.893548 -7.391318,3.822924 -5.591736,2.779685 113.139174,-65.587516 80.328169,-45.441836 55.989908,-32.142686 -7.691713,5.16969 -14.9008771,10.682089 -22.0614131,16.586193 -2.317302,1.915899 -5.392672,4.558915 -7.900406,6.220597 -1.513975,1.003208 -3.2879959,1.622164 -4.7036759,2.756722 -1.554678,1.245964 -2.518466,3.13015 -4.12094,4.315563 -3.273935,2.421826 -7.945061,2.69915 -10.426984,6.390314 -4.10742,3.025172 -8.56744,5.583976 -12.539461,8.780612 -2.013475,1.620419 -3.642549,3.661916 -5.570084,5.381252 -5.627407,5.019553 -12.034677,9.19438 -17.053347,14.877767 -1.17837,1.129834 -7.31204,6.963344 -8.46326,8.251188 -2.498,2.794494 -4.29388,6.16818 -6.88774,8.876182 -0.93313,0.974186 -2.34137,1.440657 -3.22261,2.460852 -0.87163,1.009061 -1.28217,2.330918 -1.92325,3.496367 -6.65041,8.620035 -13.42552,17.0349228 -20.991049,24.9120028 -10.08965,11.9537702 -19.52768,24.2176902 -28.10693,37.2880902 -10.27283,14.56253 -20.3876,29.22695 -30.53705,43.86927 -9.13154,12.91319 -17.2483,26.625878 -24.05804,40.865028 -6.18394,11.93291 -11.719,24.02811 -16.55797,36.5367 -7.50879,16.00259 -14.07819,32.35543 -21.05401,48.58915 -4.86821,13.28625 -8.66446,26.94467 -14.58002,39.85998 -2.49729,10.40316 -6.41457,20.49263 -7.65144,31.13135 -0.62854,4.01919 -0.91408,8.10433 -1.87146,12.05975 -0.39285,1.62305 -1.34501,3.08618 -1.69095,4.71962 -1.15129,5.43601 -0.38214,11.2657 -1.83083,16.68108 -1.55076,11.09063 -1.56214,22.21304 -1.49583,33.40121 0.12936,10.91764 0.21,21.83741 0.74814,32.74515 0.66331,12.49197 1.91036,24.93018 3.4531,37.34627 0.19509,12.38673 0.5746,24.85372 3.33059,36.99261 3.28458,13.89085 8.77863,26.92376 12.73879,40.58426 0.72904,2.03416 1.45809,4.06833 2.18713,6.10251 0.44852,1.79577 0.73758,3.63789 1.34554,5.38732 2.14944,6.18512 6.06757,11.54275 9.16039,17.25537 6.08136,8.88355 11.44972,18.16675 16.43545,27.68501 6.0941,11.99738 14.21843,23.05924 22.53637,33.63258 7.47024,9.70614 15.09137,19.26125 22.49845,28.99958 8.88978,8.45691 17.50892,17.26116 28.61022,22.96106 12.15498,6.41698 25.00873,10.73651 37.808189,15.74821 16.17712,5.99023 32.87498,10.98721 50.176792,12.37812 22.446001,1.42445 44.9224719,1.08259 67.405078,1.25644 27.861842,0.12919 55.722999,-0.0392 83.584741,-0.0635 26.0416,0.0277 52.08219,-0.0185 78.12368,-0.0335 25.76577,0.0257 51.53142,0.008 77.29693,0.0729 28.44113,0.0454 56.88138,0.11954 85.32242,0.19656 31.60063,0.0694 63.20126,0.16308 94.80174,-0.0392 27.31983,-0.25264 54.6588,0.006 81.95629,-1.30146 28.60674,-1.51 57.13181,-4.12558 85.38571,-8.93439 26.39377,-3.71984 52.68719,-8.05202 79.01095,-12.21974 23.3086,-3.40908 46.66577,-6.66293 69.76984,-11.26679 16.11527,-3.72179 31.9145,-8.54476 47.97328,-12.48139 18.12149,-4.95228 36.26809,-9.82101 54.29247,-15.10937 19.84257,-6.23407 38.78082,-14.06637 57.08897,-23.92114 3.23467,-1.66369 6.48899,-3.29062 9.704,-4.99106 3.35206,-1.77295 13.27126,-7.33614 9.99598,-5.42841 -19.58272,11.40611 -78.59063,45.18649 -58.9219,33.92567 25.97491,-14.87123 51.85577,-29.90234 77.84043,-44.75696 2.76332,-1.57971 11.15229,-6.14454 8.40094,-4.54456 -19.79939,11.51388 -39.69901,22.85884 -59.54853,34.28824 15.20295,-9.22535 30.93838,-17.67039 45.10785,-28.37323 12.62244,-7.46594 24.16336,-17.09067 35.03452,-26.79978 5.25478,-4.36281 10.7982,-8.39918 15.82715,-13.01417 8.9982,-8.25747 16.7051,-17.93927 26.36,-25.52481 11.2075,-8.92936 21.4474,-18.97648 31.5775,-29.08283 10.1716,-13.17523 -3.2267,3.34006 6.467,-6.37458 1.0444,-1.04669 1.5213,-2.56332 2.5744,-3.60153 2.6362,-2.59896 6.7163,-4.01347 8.3037,-8.42121 3.7341,-4.01908 8.3438,-7.5348 11.2983,-12.19678 1.0744,-1.69543 1.607,-3.69174 2.7019,-5.37435 1.5844,-2.43493 4.2782,-4.03978 5.6906,-6.61925 1.0037,-1.02477 2.2723,-1.84941 3.0112,-3.0743 0.8769,-1.45386 1.0309,-3.23539 1.7273,-4.7816 2.2142,-4.91601 5.894,-9.17832 8.8144,-13.66892 6.3457,-11.78344 15.4312,-22.03971 22.1965,-33.61711 6.6188,-13.5183 14.1271,-26.5475 22.414,-39.09404 6.0026,-15.01809 13.6666,-29.47423 17.4564,-45.27545 4.6347,-14.71121 9.2235,-29.41809 13.6115,-44.16728 2.8884,-14.40133 8.3688,-28.18059 10.3518,-42.83076 5.1397,-13.02792 5.2129,-26.90548 8.6326,-40.39061 0.2117,-2.42205 0.7452,-9.43869 1.2636,-11.98807 0.285,-1.40182 1.0643,-2.68582 1.2751,-4.10039 0.5971,-4.00579 -0.589,-8.23716 -0.017,-12.26131 0.272,-11.29834 0.3641,-22.59867 0.5103,-33.898958 0.078,-13.76804 0.2141,-27.53427 0.2669,-41.30085 -0.022,-11.4238 -1.2866,-22.57107 -3.1005,-33.84211 -1.932,-13.1304902 -2.9013,-26.3651902 -6.9035,-39.106667 -3.5358,-12.879997 -7.6024,-25.598309 -10.4467,-38.637487 -2.9487,-8.95146 -4.4292,-18.540525 -9.0906,-26.849387 -5.3294,-8.574335 -11.3855,-16.668683 -17.0618,-25.018171 -8.0518,-11.1157 -17.3284,-21.27858 -27.2534,-30.78697 -9.9865,-9.29765 -18.642,-19.75253 -27.8776,-29.75534 -5.3019,-5.47036 -11.4133,-9.79781 -17.6226,-14.1944 -6.8015,-5.48186 -13.4014,-11.27679 -21.7142,-14.49845 -10.6483,-3.5602 -20.3909,-9.20276 -31.1673,-12.45475 -12.1823,-3.11873 -24.3453,-6.29478 -36.5199,-9.44681 -13.7854,-3.43863 -27.59905,-6.81051 -41.53044,-9.62581 -12.98033,-1.70563 -26.08795,-2.81879 -39.14038,-3.73883 -15.3539,0.29712 -30.72126,0.18341 -46.03291,-1.12559 -18.7035,-0.76174 -37.35915,-2.20846 -56.03762,-3.38911 -18.15048,-0.49966 -36.30333,-0.0879 -54.45861,-0.0296 -12.44909,0.0518 -24.8981,0.0702 -37.34703,0.15774 -11.89979,-0.0715 -23.80001,-0.19328 -35.70008,-0.10886 -11.51051,0.0415 -23.02539,-0.047 -34.53201,0.28554 0,0 66.78279,-47.91585 66.78279,-47.91585 z"
         inkscape:connector-curvature="0" />
      <path
         id="path3377"
         d="m 481.9397,-308.18603 c 7.98123,8.50826 17.83037,14.69257 27.63637,20.88829 3.75505,1.81332 6.67235,5.09871 10.5613,6.67298 0.83902,0.33962 1.84594,0.19656 2.64837,0.61351 0.19218,0.0998 6.41327,4.9011 6.49867,4.96685 6.68081,4.87551 13.44102,9.44198 19.88177,14.67173 8.00536,6.9035 16.89356,12.46983 25.21724,18.92554 5.73181,4.78113 12.70013,7.57014 17.5448,13.3345 4.31605,7.55972 -0.14747,15.40078 -3.36807,22.56138 -4.16435,8.77133 -7.77541,17.74912 -11.41268,26.74053 -3.18905,8.67878 -9.33663,15.66252 -13.67174,23.69453 -2.93988,5.60051 -6.16546,11.08054 -8.87074,16.79346 -2.15971,2.18634 -1.78442,5.53813 -2.61154,8.32125 -0.53992,1.21852 -0.87384,2.54808 -1.61972,3.65559 -1.32639,1.96944 -3.67293,3.04265 -5.3965,4.68505 -3.76301,3.58579 -7.17986,7.60181 -10.8233,11.31314 -6.11474,5.67129 -12.02524,11.505645 -17.82989,17.486772 -29.34019,26.084601 71.64567,-36.032922 -76.73339,47.171914 -8.72291,4.891448 3.23094,-6.19369 -4.56424,1.684912 -1.09748,0.181774 -2.24476,0.174791 -3.29245,0.545076 -2.10913,0.745623 -3.73354,2.504313 -5.80831,3.338687 -2.98552,1.200633 -6.535,1.619453 -9.71488,1.910086 -4.03633,0.100027 -2.66217,-0.847191 -4.3005,2.571785 0,0 64.32694,-51.340395 64.32694,-51.340395 l 0,0 c 3.99854,0.153635 2.07151,0.348185 5.78818,-0.511062 5.99921,-2.040388 11.68266,-4.982808 17.41787,-7.554859 1.05541,-0.224106 2.17778,-0.243722 3.16624,-0.672318 0.61678,-0.267424 2.072,-1.683824 1.49108,-1.347038 -137.20658,79.539613 -78.89442,57.85415 -64.2253,35.01476 6.7686,-5.231827 11.6328,-12.342788 18.78263,-17.093438 14.50052,-16.069055 -7.26309,7.79821 7.67297,-7.754318 3.23588,-3.369434 4.97454,-8.975778 10.35382,-8.877189 0.4646,-0.75692 1.42691,-1.204186 1.72071,-2.040388 0.69347,-1.9738 -0.26275,-5.096537 0.47897,-7.082827 1.44811,-2.2047 2.29326,-4.82596 3.69455,-6.96712 0.61239,-0.93569 1.73897,-1.46633 2.35784,-2.39786 0.774,-1.16503 3.12967,-7.51819 3.44201,-8.32679 7.98871,-9.78877 -2.37321,3.76589 4.6507,-8.85047 1.30422,-2.3426 3.97684,-3.71375 5.40871,-5.98252 0.74594,-1.18192 1.06331,-2.58641 1.73924,-3.80871 0.69461,-1.25607 1.5739,-2.40359 2.36083,-3.60539 1.23873,-2.87072 2.77891,-5.61413 3.91302,-8.52671 2.15678,-5.53885 0.53486,-4.00757 3.29555,-9.45886 0.73109,-1.44364 1.95625,-2.62162 2.60136,-4.10467 0.70167,-1.61302 0.9302,-3.3888 1.3953,-5.0832 0.75791,-1.41999 3.1645,-5.8606 3.81614,-7.35187 0.46148,-1.0561 0.82764,-2.15198 1.17288,-3.25053 0.26988,-0.85886 0.042,-1.96447 0.67048,-2.61525 0.40842,-0.42292 1.25035,0.35815 1.77333,0.0846 0.27617,-0.14439 -0.13976,-0.6016 -0.20975,-0.9024 -4.29496,-5.07022 -11.30928,-7.46684 -15.96903,-12.2072 -8.40914,-6.31734 -16.8759,-12.54106 -25.15284,-19.03265 -6.57052,-4.84651 -13.53817,-9.14913 -19.96275,-14.20044 -6.43558,-4.15238 -13.38297,-7.47786 -19.47052,-12.20778 -9.76902,-7.11937 -19.63428,-14.09717 -28.89847,-21.87295 0,0 70.42674,-42.61974 70.42674,-42.61974 z"
         inkscape:connector-curvature="0" />
    </g>
  </g>
</svg>
