<?xml version="1.0" encoding="UTF-8" standalone="no"?>
<svg
   xmlns:dc="http://purl.org/dc/elements/1.1/"
   xmlns:cc="http://creativecommons.org/ns#"
   xmlns:rdf="http://www.w3.org/1999/02/22-rdf-syntax-ns#"
   xmlns:svg="http://www.w3.org/2000/svg"
   xmlns="http://www.w3.org/2000/svg"
   xmlns:sodipodi="http://sodipodi.sourceforge.net/DTD/sodipodi-0.dtd"
   xmlns:inkscape="http://www.inkscape.org/namespaces/inkscape"
   version="1.0"
   width="297mm"
   height="210mm"
   viewBox="0 0 841.88976 595.27559"
   preserveAspectRatio="xMidYMid meet"
   id="svg2"
   inkscape:version="0.91 r13725"
   sodipodi:docname="svg_logo.svg"
   inkscape:export-filename="/Users/shiradomasafumi/Documents/手帳類/logo/svg_logo2.png"
   inkscape:export-xdpi="90"
   inkscape:export-ydpi="90">
  <defs
     id="defs28">
    <inkscape:path-effect
       effect="skeletal"
       id="path-effect3492"
       is_visible="true"
       pattern="M 0,0 1,0"
       copytype="single_stretched"
       prop_scale="1"
       scale_y_rel="false"
       spacing="0"
       normal_offset="0"
       tang_offset="0"
       prop_units="false"
       vertical_pattern="false"
       fuse_tolerance="0" />
  </defs>
  <sodipodi:namedview
     pagecolor="#ca6464"
     bordercolor="#666666"
     borderopacity="1"
     objecttolerance="10"
     gridtolerance="10"
     guidetolerance="10"
     inkscape:pageopacity="0"
     inkscape:pageshadow="2"
     inkscape:window-width="1680"
     inkscape:window-height="949"
     id="namedview26"
     showgrid="false"
     inkscape:zoom="0.49859259"
     inkscape:cx="79.793326"
     inkscape:cy="404.67497"
     inkscape:window-x="0"
     inkscape:window-y="1"
     inkscape:window-maximized="1"
     inkscape:current-layer="g3633"
     units="mm" />
  <metadata
     id="metadata4">
Created by potrace 1.10, written by Peter Selinger 2001-2011
<rdf:RDF>
  <cc:Work
     rdf:about="">
    <dc:format>image/svg+xml</dc:format>
    <dc:type
       rdf:resource="http://purl.org/dc/dcmitype/StillImage" />
    <dc:title />
  </cc:Work>
</rdf:RDF>
</metadata>
  <g
     transform="matrix(0.1,0,0,-0.1,175.74803,651.9685)"
     id="g6"
     style="fill:#ffffff;stroke:none" />
  <text
     xml:space="preserve"
     style="font-style:normal;font-weight:normal;font-size:32px;line-height:125%;font-family:sans-serif;letter-spacing:0px;word-spacing:0px;fill:#000000;fill-opacity:1;stroke:none;stroke-width:1px;stroke-linecap:butt;stroke-linejoin:miter;stroke-opacity:1"
     x="185.6693"
     y="143.1496"
     id="text3474"
     sodipodi:linespacing="125%"><tspan
       sodipodi:role="line"
       id="tspan3476"
       x="185.6693"
       y="143.1496" /></text>
  <g
     id="g3588"
     transform="matrix(0.38464046,0,0,0.38949448,241.29941,211.18215)">
    <g
       id="g3633"
       transform="translate(12.514412,-39.135102)">
      <path
         d="m 366.66463,117.36515 c -0.9,0.9 -1.2,8.2 -1.2,26.9 0,20 -0.3,25.9 -1.3,26.8 -0.8,0.6 -7.7,1.2 -17.8,1.3 l -16.4,0.3 0,73 0,73 8.5,0 8.5,0 0.5,-64 0.5,-64 8.5,0 8.5,0 0.5,92.5 0.5,92.49999 7.9,0.3 c 4.4,0.2 8.3,-0.1 8.8,-0.6 0.5,-0.5 0.8,-41.09999 0.8,-91.89999 0,-77.3 0.2,-91.2 1.4,-92.2 0.9,-0.8 4.5,-1.1 10.3,-0.9 l 8.8,0.3 0.3,51.7 c 0.2,51.3 0.2,51.8 -1.9,53.9 -1.7,1.7 -2.7,1.9 -6.2,1.3 -7.6,-1.3 -7.2,-1.7 -7.1,6.9 0,10.4 0.7,11 12.7,11.5 10.3,0.5 13.1,-0.4 17.7,-5.3 2.5,-2.6 2.5,-2.9 2.9,-23.8 0.2,-14.5 0.7,-21.4 1.5,-21.9 1.9,-1.3 20.1,-0.9 21.4,0.4 0.9,0.9 1.2,11.6 1.2,42.1 l 0,40.8 -3.5,1.4 c -1.9,0.8 -6.5,1.9 -10.3,2.5 -12.8,1.79999 -13.6,2.49999 -11,9.29999 1.1,2.9 2.3,6.4 2.5,8 1.1,5.7 3.9,5.6 29.8,-1 14.3,-3.7 35.5,-9.7 41.5,-11.8 1.9,-0.7 5.1,-1.8 7,-2.4 1.9,-0.7 4.9,-1.59999 6.5,-1.99999 1.7,-0.4 4,-1.4 5.3,-2.2 2,-1.2 2.1,-1.9 1.5,-6.4 -1.2,-9.1 -1.6,-10 -4.9,-9.7 -1.6,0.2 -5.1,1 -7.9,1.8 -7.5,2.2 -14.3,4.1 -21,5.8 -3.3,0.8 -8,2 -10.3,2.6 -2.4,0.6 -4.7,0.8 -5,0.5 -0.4,-0.4 -0.8,-18 -1,-39.2 -0.2,-28.6 0,-38.9 0.9,-39.9 0.9,-1.1 3.4,-1.4 10.8,-1.2 l 9.6,0.3 3.6,10.9 c 2,6 4.1,11.7 4.7,12.7 0.7,1 1.2,2.3 1.2,2.9 0,1.5 5.9,13.7 9.4,19.5 8.7,14.4 25.8,32.8 41.1,44.19999 10.9,8.1 22.8,15.3 25.2,15.3 1.3,0 3.8,-2.5 7.6,-7.9 3.2,-4.3 5.7,-8.1 5.7,-8.5 0,-0.4 -2.4,-1.79999 -5.2,-3.19999 -2.9,-1.4 -6.2,-3 -7.3,-3.7 -1.1,-0.6 -4.2,-2.5 -7,-4.1 -12.4,-7.4 -31.5,-23.6 -31.5,-26.8 0,-0.8 3,-3.6 6.8,-6.4 10.8,-7.9 30.2,-25.4 30.2,-27.2 -0.1,-2.3 -12.5,-11.2 -15.6,-11.2 -1.3,0 -2.4,0.3 -2.4,0.7 0,0.9 -15.5,17.1 -23.6,24.7 -7,6.5 -7.1,6.5 -14.9,-9.3 -4.5,-9.3 -7.9,-19.5 -7.2,-21.6 0.6,-1.3 5.1,-1.5 37.1,-1.5 41.6,0 38.6,0.7 38.6,-8.9 0,-8.9 5.9,-8.1 -58.6,-8.1 -55.7,0 -57.4,-0.1 -58.4,-1.9 -1.1,-2.1 -1.4,-15.2 -0.4,-18.8 l 0.6,-2.3 44.7,-0.2 44.6,-0.3 0.3,-7.8 0.3,-7.7 -44.5,0 c -51.7,0 -46.9,1.3 -46.4,-12.3 l 0.3,-8.2 45,-0.5 45,-0.5 0,-8.5 0,-8.5 -45,-0.5 -45,-0.5 -0.3,-8.2 c -0.5,-13.6 -6.1,-12.2 52.1,-12.5 l 50.2,-0.3 0.3,-6.8 c 0.2,-4.2 -0.2,-7.4 -0.9,-8.3 -1,-1.2 -10.5,-1.4 -59.4,-1.4 -32.1,0 -59,0.3 -59.9,0.6 -1.4,0.6 -1.6,6.4 -1.6,56.1 0,36.3 -0.4,56.1 -1,57.4 -1,1.7 -2.2,1.9 -10.9,1.9 -7,0 -10.2,-0.4 -11,-1.3 -0.7,-0.9 -1.2,-12.8 -1.3,-37.3 l -0.3,-35.9 -18.2,-0.5 c -10,-0.3 -18.5,-0.9 -19,-1.3 -0.4,-0.5 -0.9,-12.3 -1,-26.4 -0.1,-17.7 -0.6,-25.9 -1.4,-26.9 -1.5,-1.8 -14,-1.9 -15.7,-0.2 z"
         id="path8"
         inkscape:connector-curvature="0"
         style="fill:#000000;stroke:none" />
      <path
         d="m 688.84065,115.37578 c -4.8,0 -7.7,0.4 -8.2,1.2 -0.4,0.7 -1,14.1 -1.3,29.8 l -0.5,28.5 -25.4,0.3 c -17.19999,0.1 -25.89999,0.6 -26.79999,1.4 -1,0.8 -1.3,3.1 -1.1,8.2 l 0.3,7.1 22.49999,0.3 c 12.3,0.1 22.9,0.7 23.4,1.2 1.8,1.8 -15.8,20.6 -29.39999,31.6 -4.1,3.3 -10.3,7.8 -13.7,10 -3.4,2.1 -6.4,4.5 -6.7,5.2 -0.5,1.1 2.1,5.1 9.1,14.1 2.1,2.7 30.29999,-21.4 40.09999,-34.4 4.6,-6 6,-7.5 7.5,-7.5 0.4,0 0.7,7.4 0.7,16.5 0,18.9 -0.2,18.5 9.5,18.5 9.5,0 9.6,-0.2 9.5,-13.8 -0.1,-6.4 -0.1,-12.3 -0.1,-13 0.1,-2 2.7,-1.4 6.9,1.5 2.2,1.6 6.1,4.3 8.8,6.2 5.2,3.7 6.8,5 15,12.5 2.9,2.6 5.7,4.4 6.5,4.1 1.9,-0.7 9.4,-13 9.4,-15.2 0,-1.9 -14.8,-12.2 -27.5,-19 -4.1,-2.3 -10,-5.4 -13,-7 -5.2,-2.8 -5.5,-3.2 -5.5,-6.9 l 0,-3.9 24.5,-0.5 24.5,-0.5 0.3,-6 c 0.2,-3.2 0.1,-6.9 -0.3,-8.2 l -0.5,-2.3 -24,0 c -14.9,0 -24.1,-0.4 -24.5,-1 -0.3,-0.6 -0.6,-13.2 -0.5,-28 0,-17.3 -0.3,-27.7 -1,-29 -0.9,-1.7 -2.1,-2 -8.5,-2 z m 37.72968,11.00938 c -1.22632,0.0158 -2.1172,0.24062 -2.52968,0.69062 -0.4,0.3 -0.7,1.4 -0.7,2.4 0,1 -0.6,3.3 -1.4,5.1 -0.8,1.8 -2.9,6.9 -4.7,11.3 -1.8,4.4 -4.6,10.2 -6.2,12.9 -3.3,5.8 -3.1,6.2 5.5,9.9 l 5.6,2.5 2,-2.1 c 4.2,-4.6 16.6,-29.3 17.8,-35.5 0.5,-2.3 0.2,-3.3 -0.7,-3.5 -0.8,-0.3 -3.6,-1.2 -6.4,-2.1 -3.25,-1.0625 -6.22632,-1.61699 -8.27032,-1.59062 z m -79.52968,0.0906 c -0.7,0.1 -4.29999,1.7 -7.99999,3.5 -6.1,3 -6.8,3.7 -6.1,5.7 0.3,1.2 1.2,2.9 1.8,3.7 1.8,2.2 8.9,17.4 12.29999,26.2 1.1,3.1 2.4,4.8 3.5,4.8 3,0 15.3,-5.8 15.6,-7.4 0.4,-1.7 -0.6,-3.9 -9.5,-22.3 -5.5,-11.5 -7.5,-14.4 -9.6,-14.2 z m 167.2,0.025 c -31.35,0.025 -62.8,0.225 -64.1,0.575 -2.1,0.5 -3,4.9 -2.6,11.8 l 0.3,5 27.7,0.5 c 15.2,0.3 28,0.9 28.4,1.3 0.5,0.4 0,3.8 -0.9,7.5 -0.9,3.7 -1.7,7.6 -1.7,8.8 0,3.2 -3.1,11.4 -4.3,11.5 -0.7,0 -8,0 -16.2,-0.1 -8.3,-0.1 -15.8,0.2 -16.8,0.5 -1.6,0.7 -1.7,5.2 -1.7,72.5 0,62.6 0.2,71.90001 1.5,72.40001 2.8,1.1 98.89999,0.5 100.19999,-0.6 2,-1.6 1.9,-142.10001 -0.1,-143.70001 -0.9,-0.8 -8.2,-1.1 -23.6,-1.1 -12.2,0.1 -22.5,-0.1 -22.8,-0.4 -0.5,-0.6 1,-6.6 3,-11.5 0.5,-1.4 1.3,-4.7 1.9,-7.5 0.5,-2.7 1.6,-6 2.5,-7.3 l 1.5,-2.4 25.2,0.1 26.5,0 c 0.8,0 1.2,-2.4 1.2,-8.4 0,-6.7 -0.3,-8.5 -1.6,-9 -0.9,-0.35 -32.15,-0.5 -63.49999,-0.475 z m -0.5,63.875 32.39999,0 0.6,2.2 c 0.9,3.4 0.7,21.1 -0.2,22.6 -0.7,0.9 -8,1.2 -33.29999,1 l -32.4,-0.3 -0.3,-11.4 c -0.1,-6.3 0,-12.1 0.2,-12.8 0.4,-1 7.1,-1.3 33,-1.3 z m 0.3,42 c 30.19999,0 31.29999,0.1 32.29999,2 0.6,1.2 0.9,6.5 0.8,12.7 l -0.3,10.8 -33.19999,0.3 -33.3,0.2 0,-11.8 c 0,-7.8 0.4,-12.2 1.2,-13 0.9,-0.9 9.5,-1.2 32.5,-1.2 z M 690.31409,255.4492 c -3.82912,-0.0352 -7.98592,0.33906 -9.17344,1.02656 -1.5,0.8 -1.8,2.5 -1.8,10.8 0,7 -0.4,10.2 -1.3,11 -0.9,0.7 -10.1,1.2 -26.8,1.3 l -25.39999,0.3 -0.3,6.8 c -0.2,4.2 0.2,7.4 0.9,8.3 0.9,1.1 5.8,1.4 26.09999,1.4 21.7,0 24.9,0.2 25.5,1.6 0.9,2.4 -2.5,12.8 -7.5,23.10001 -7,14.6 -21.3,28.6 -38.69999,37.9 -2.1,1.2 -4.1,2.6 -4.2,3.1 -0.5,1.3 9.1,12.9 11.2,13.7 2.1,0.8 4,-0.1 12.19999,-5.7 14.7,-9.9 29,-25.6 35.8,-39 1.7,-3.3 3.6,-6.1 4.3,-6.4 0.7,-0.3 2.7,0.6 4.6,2 4.2,3.2 21.6,20.7 26.3,26.4 2,2.4 4.1,4.3 4.8,4.3 1.5,0 12.8,-11.5 13.3,-13.4 0.5,-2.4 -20.9,-21.1 -39.3,-34.50001 -4.5,-3.1 -4.7,-3.5 -4,-7 0.4,-2 1.1,-4.2 1.7,-4.9 0.8,-0.9 6.9,-1.2 24.4,-1.2 l 23.4,0 0.5,-2.3 c 0.4,-1.3 0.5,-5 0.3,-8.2 l -0.3,-6 -23,-0.3 c -20.2,-0.2 -23.2,-0.4 -24.2,-1.9 -0.8,-1.1 -1.3,-5.2 -1.3,-11.4 0,-9.2 -0.1,-9.7 -2.2,-10.3 -1.35,-0.3375 -3.52912,-0.50547 -5.82656,-0.52656 z m 123.12656,18.92656 c 26.59999,0 30.99999,0.2 32.29999,1.6 1.3,1.2 1.6,3.8 1.6,11.7 0,5.6 -0.3,11.2 -0.6,12.5 l -0.6,2.2 -32.69999,-0.2 -32.6,-0.3 -0.3,-12.4 c -0.2,-8.2 0.1,-12.8 0.9,-13.7 0.9,-1.1 6.9,-1.4 32,-1.4 z m -25.4,47.00001 c -0.1,0 -4,3.9 -8.5,8.5 -12,12.2 -26.7,23.7 -37.9,29.5 -2.4,1.2 -4.3,2.9 -4.3,3.7 0,0.8 2.4,4.1 5.3,7.4 6,7 7.3,7.1 15.3,1.8 16.3,-10.9 41.2,-32.5 44.3,-38.6 1,-1.9 0.4,-2.5 -6.4,-7.2 -4.2,-2.8 -7.7,-5.1 -7.8,-5.1 z m 47.49999,0.1 c -0.4,0 -3,1.7 -5.7,3.8 -8.6,6.5 -8.6,6.2 -0.3,12.7 10.1,8.1 13.7,11.3 26.1,23.6 5.9,6 11.6,10.8 12.5,10.8 2,-0.1 14.1,-9.5 14.9,-11.7 0.7,-1.7 -3.4,-5.7 -17.1,-17.1 -13.4,-11.1 -28.7,-22.3 -30.4,-22.1 z"
         id="path10"
         inkscape:connector-curvature="0"
         style="fill:#000000;stroke:none" />
      <path
         d="m 218.25619,128.93092 c -8.4,2.7 -37.3,8.4 -61,12 -30.9,4.7 -89.299991,10.7 -103.699991,10.6 -3.7,0 -6.9,0.4 -7.3,1 -0.3,0.5 1.1,4.4 3.2,8.7 l 3.8,7.79998 7.5,0.3 c 7,0.4 29.1,-1.3 52.500001,-3.99998 18.89999,-2.1 27.99999,-2.6 29.29999,-1.5 1.7,1.3 1.7,38.79998 0,40.49998 -0.9,0.9 -13.5,1.2 -50.499991,1.2 l -49.4,0 0.3,8.7 0.3,8.8 48.9,0.3 c 34.099991,0.1 49.299991,0.6 50.299991,1.3 1.6,1.4 1.9,37.9 0.3,41 -1,1.8 -2.8,1.9 -60.899991,1.9 -53.7,0 -59.9,0.2 -60.5,1.6 -1.1,2.8 -0.6,14 0.7,15.7 1.1,1.6 6.2,1.7 61.2,1.9 l 59.999991,0.3 0.3,24 c 0.2,13.2 0,25.5 -0.3,27.4 -0.4,1.8 -1.7,4.4 -3,5.7 -2.3,2.3 -3,2.4 -16.89999,2.4 -8.7,0 -17.5,-0.6 -22.3,-1.5 -4.300001,-0.8 -9.700001,-1.5 -12.000001,-1.5 -5.1,0 -5.2,0.3 -2.6,12.7 1.4,6.7 2.1,8.3 3.7,8.7 6.9,1.6 26.400001,2.7 40.599991,2.4 18.2,-0.4 23.3,-1.8 28.6,-7.5 5.7,-6.1 5.8,-7.2 6.2,-41.6 l 0.3,-31.7 55.7,0 c 30.6,0 56.3,-0.4 57,-0.9 0.9,-0.5 1.2,-3.1 1,-9.2 l -0.3,-8.4 -56.5,-0.5 -56.5,-0.5 0,-21.5 0,-21.5 46,-0.5 46,-0.5 0,-8.5 0,-8.5 -46,-0.5 -46,-0.5 0,-23 0,-22.99998 5.5,-0.8 c 16.7,-2.3 41,-6.5 48.1,-8.3 3,-0.8 6.5,-1.4 7.7,-1.4 3.9,0 14.2,-3.3 14.2,-4.5 0,-1.9 -15.6,-16.5 -17.6,-16.4 -1.1,0 -3.7,0.6 -5.9,1.3 z"
         id="path18"
         inkscape:connector-curvature="0"
         style="fill:#000000;stroke:none" />
      <path
         id="path3343"
         d="m 1082.3381,126.7996 c 0.6982,-13.48437 0.5342,-27.001952 0.2018,-40.495469 -1.1285,-6.920327 -1.1326,-13.838455 -0.9464,-20.820325 -0.1283,-6.334708 -2.5856,-12.386404 -3.9103,-18.545389 -0.8953,-5.583568 -0.5721,-11.247518 -0.7182,-16.87381 -0.6883,-4.570678 -2.8426,-8.608439 -4.4662,-12.887714 -2.6984,-4.476524 -3.4406,-9.7115889 -5.6235,-14.3678883 -4.5636,-3.51861755 -4.0457,-11.5009479 -4.5379,-16.6384707 -1.9107,-5.786388 -4.1176,-11.302739 -6.7031,-16.838555 -1.0285,-4.5893 -3.4122,-7.295592 -5.8315,-11.436808 -3.0735,-2.644892 -4.9965,-6.446019 -6.9326,-9.956105 -2.6323,-4.502933 -4.3847,-9.464936 -6.2796,-14.306126 -1.9424,-3.322287 -4.2227,-7.670313 -7.4288,-10.444833 -2.023,-2.373957 -2.6301,-6.374376 -5.7728,-7.683471 -0.406,-0.169182 -0.8643,0.169902 -1.2966,0.254826 -0.7768,-0.706977 -1.5536,-1.413945 -2.3304,-2.120895 -0.6697,-0.235026 -1.4353,-0.290853 -2.0089,-0.705222 -1.0062,-0.72684 -1.6446,-1.868418 -2.6182,-2.637315 -2.0183,-1.593819 -2.7382,-1.006551 -5.0765,-2.180205 -0.4342,-0.217962 -5.676,-3.62205 -6.3053,-4.029039 -8.12708,-4.830476 -17.01989,-8.112506 -25.62785,-12.057126 -13.34358,-3.22097 -26.34597,-7.57193 -39.50291,-11.47619 -12.46813,-2.93769 -24.8379,-6.10872 -37.57962,-7.68827 -14.96995,-2.05216 -30.15631,-3.25451 -45.06619,-5.80364 -17.26965,-3.04741 -34.77834,-4.02502 -52.27533,-4.6872 -12.90917,-0.85075 -25.91866,0.55738 -38.76762,-1.20041 -27.92484,-3.82025 7.24966,-0.01 -17.82963,-2.57234 -16.1424,-1.33562 -32.35935,-1.38585 -48.54732,-1.34312 -14.09338,-0.0295 -28.18764,0.0956 -42.28129,0.18336 -2.00633,0.0121 -4.01287,0.005 -6.01897,0.0375 -7.06125,0.11222 -11.04771,-2.58307 -17.49671,-3.62342 -4.04122,-1.06358 -8.34768,-1.02092 -12.52458,-0.96413 -4.1207,0.16173 -8.24022,-0.0276 -12.36077,0.0761 -5.16128,0.11775 -10.32723,-0.0488 -15.48963,-0.10142 -10.58621,-0.0848 -21.1717,-0.16124 -31.75807,-0.27169 -12.98031,-0.0699 -25.96015,0.11776 -38.94034,0.0646 -14.83385,-0.18 -29.66751,-0.16485 -44.50178,-0.0725 -13.28583,0.331 -26.56322,-0.43797 -39.8088,0.68419 -14.83512,2.3506 -29.76323,3.263 -44.76066,3.65598 -16.36968,0.78543 -32.81201,-0.39818 -49.12049,1.21289 -18.25203,2.3603 -36.71329,2.20126 -54.97334,4.26919 -17.57653,2.29552 -35.2421,3.74879 -52.96809,4.11612 -15.36984,1.06411 -30.6706,2.73014 -46.02964,4.37623 -14.53774,1.76938 -29.07167,1.70474 -43.65847,3.17143 -11.7881,2.10969 -23.74339,2.4134 -35.68583,2.51739 -12.226091,0.22469 -24.456523,0.21051 -36.684736,0.24545 -13.725023,0.71954 -27.373198,2.7748 -41.16115,3.51847 -12.697624,0.57089 -24.9967474,3.94767 -37.6205443,5.26797 -9.9344517,-0.0906 -19.3375797,1.69449 -28.9534947,3.88687 -9.122065,0.52431 -17.228986,4.8595 -26.153386,6.24324 -6.906546,-0.30032 -12.737313,3.39709 -19.066644,5.385504 -14.667786,4.607946 3.831309,-2.184604 -10.753641,3.365154 -1.951065,0.829746 -3.847959,1.79676 -5.853186,2.489238 -2.020392,0.697698 -10.560478,2.659941 -12.407238,3.227121 -6.94986,2.134476 -13.42832,5.146965 -20.44398,7.131771 -10.23698,4.10094 -20.52036,8.05887 -31.23171,10.905507 -1.81376,1.415745 -4.63846,0.446301 -6.5416,1.62936 -0.69295,0.430758 -0.82413,1.423701 -1.41676,1.981656 -0.0194,0.01926 -3.60448,2.201031 -3.744,2.286054 27.19329,-15.501744 54.38655,-31.00347 81.579848,-46.505195 -18.551028,8.98568 -205.435768,116.522235 -5.683428,2.4363 0.647442,-0.36977 -1.438497,0.50999 -2.007954,0.98886 -0.536373,0.45107 -0.804078,1.14265 -1.206135,1.71399 -0.627435,0.45175 -1.254851,0.90349 -1.882291,1.35524 -0.59167,0.41014 -1.18333,0.82031 -1.77499,1.23044 -0.7654,0.20259 -1.62779,0.18769 -2.29613,0.60799 -3.25268,2.04609 -5.25305,8.912583 -6.4732,12.179349 -2.1925,9.221571 -4.10139,18.521361 -6.07411,27.799641 -1.47759,5.19842 -1.83239,10.545975 -2.30123,15.883534 -0.42824,5.585656 -0.0742,11.178378 -0.0888,16.770113 0.0316,3.383995 0.22242,6.75691 0.11656,10.138454 -0.0718,5.833778 -0.21998,11.6667866 -0.29126,17.5011419 -0.11729,8.4784527 -0.14357,16.9669041 0.0784,25.4448531 -0.0557,4.817766 0.2679,9.62647 0.17302,14.441111 -0.10999,4.224219 0.12946,8.451755 -0.0219,12.673712 0.52081,7.15744 -1.44984,13.982459 -2.83067,20.941853 -1.1409,5.952972 -1.17728,12.238341 -3.63135,17.842816 -1.82319,4.315229 -2.43688,8.785671 -2.97235,13.392872 -0.82022,3.59638 0.86,7.48631 -0.71675,10.77965 -0.79427,2.61697 -2.77541,4.00784 -3.86138,6.78385 -0.10076,1.44043 -0.35852,2.85199 -0.51599,4.28894 0,0 -86.58579,43.26379 -86.58579,43.26379 l 0,0 c -0.0721,-1.69262 -0.28418,-3.41461 0.0903,-5.08747 -0.08,-2.33199 -0.25116,-9.57607 2.42923,-9.71044 2.44994,-4.60244 -1.10089,0.87755 2.28365,-0.81624 0.83505,-0.4179 -0.53191,-5.82332 0.11752,-6.63387 0.19736,-5.14344 0.45265,-10.76326 2.22791,-15.55055 0.67926,-2.94649 2.4635,-4.6917 3.10632,-7.55432 0.67518,-3.00668 0.0964,-6.3487 1.43474,-9.26108 1.00099,-6.49915 3.13831,-12.727353 3.0491,-19.217753 -0.15647,-4.214328 0.093,-8.43522 -0.0219,-12.6519 -0.0981,-4.872488 0.23215,-9.739829 0.17302,-14.615312 0.21706,-8.504485 0.19978,-17.019148 0.0791,-25.52399 -0.071,-5.732076 -0.21731,-11.462665 -0.29638,-17.19407 -0.11828,-3.401344 0.0623,-6.797018 0.0601,-10.201391 -0.055,-5.7052353 0.24091,-11.40576065 0.009,-17.1101541 -0.11127,-5.9562169 0.4597,-11.9368239 1.71124,-17.7707709 2.55665,-9.324975 5.05183,-18.650864 6.14641,-28.265942 0.31264,-1.454269 1.5643,-7.578608 2.13899,-9.127008 2.86273,-7.713206 0.31345,2.497966 2.46162,-5.72273 0.32404,-1.240002 0.20563,-2.624706 0.81024,-3.757653 0.33846,-0.634275 1.21538,-0.784638 1.82307,-1.176948 1.13561,-0.723969 2.67118,-0.764262 3.70827,-1.620351 0.67708,-0.558918 0.62062,-1.784817 1.37776,-2.232441 5.08034,-3.003534 218.232722,-124.114666 5.27755,-3.235005 28.15928,-16.059699 56.30636,-32.140311 84.477841,-48.179091 0.358668,-0.20426 3.657366,-1.91215 3.903777,-1.97296 2.786193,-0.68757 5.967675,-0.31322 8.611947,-1.84672 10.2015,-3.49501 20.366109,-7.02728 30.561885,-10.53141 12.911812,-4.52048 26.004508,-8.44709 38.818492,-13.23309 10.1336847,-3.10636 20.0820273,-6.71779 30.659807,-8.10897 8.684126,-2.69817 17.427699,-4.76141 26.427587,-6.13095 9.684221,-1.67144 19.426819,-2.09998 29.18857,-3.17285 12.360227,-1.79571 24.679867,-4.08064 37.212134,-4.34299 14.05566,-1.24981 28.04422,-3.65975 42.18982,-3.41805 12.09515,0.0334 24.19074,0.0404 36.28266,-0.28644 11.70548,-0.54977 23.34064,-1.69697 35.00466,-2.77594 14.69329,-1.22074 29.44749,-1.50757 44.07055,-3.54459 15.22385,-1.34147 30.43751,-2.6455 45.70565,-3.44216 17.5383,-0.98832 35.02723,-2.37886 52.47805,-4.41374 18.45249,-1.40487 36.93384,-2.41944 55.35477,-4.24288 16.46077,-0.64792 32.93612,-0.36087 49.39659,-1.08868 14.86692,-0.82396 29.63574,-2.55826 44.47287,-3.74607 13.52232,-0.66519 27.0551,-0.67821 40.59141,-0.46885 14.90173,0.0944 29.80282,0.10354 44.70414,-0.0725 12.91983,-0.0519 25.83928,0.13458 38.75922,0.0652 10.8388,-0.1101 21.67683,-0.186 32.51543,-0.27745 5.26879,-0.0572 10.54003,-0.22374 15.80807,-0.14779 4.2295,0.0935 8.47213,-0.21413 12.68711,0.25662 4.59493,0.44542 9.12287,1.31552 13.51825,2.73859 6.93929,2.33969 13.92506,2.42085 21.25438,2.15579 14.015,0.0292 28.0296,0.0452 42.0443,0.0841 16.3601,0.24623 32.75035,0.48236 49.01837,2.39918 18.51435,2.75649 37.08099,3.2294 55.79338,3.33831 17.83817,0.71207 35.58188,2.3402 53.19722,5.28327 15.27195,1.86477 30.54297,3.75398 45.84117,5.39064 12.82887,2.44629 25.47357,5.79557 38.10927,9.053 13.3668,4.45852 27.1371,7.54409 40.4305,12.18336 9.116,3.95183 18.3999,7.70092 26.8821,12.88824 5.5509,3.40365 11.4292,6.22447 16.7038,10.08318 4.7206,2.2168 7.7158,6.44748 10.0208,10.87109 3.5922,4.03885 7.2103,8.9883 9.4887,13.75205 1.6153,4.40692 3.2262,8.92752 5.6275,12.8947 2.1483,3.391056 3.7582,6.932934 6.7015,9.786015 2.6088,4.03848 5.7942,7.964883 6.5315,12.74013 1.1986,3.218904 3.0452,6.121053 4.2815,9.281943 1.2304,3.145743 0.4875,6.889365 3.1504,9.606641 1.1894,5.096981 -0.069,10.267788 3.7357,14.296851 2.1608,4.803587 2.8018,9.855247 5.7157,14.32379 2.2821,4.706477 3.6906,9.937073 5.3398,14.964534 1.5973,5.6533989 0.5749,11.3978784 0.8581,17.2349967 0.5565,6.976458 3.4801,13.3577143 4.8627,20.2132243 -0.5198,6.905806 -1.3379,13.915645 -0.028,20.771829 -0.3228,13.425629 -0.5119,26.876721 0.2017,40.29248 0,0 -85.9033,43.224466 -85.9033,43.224466 z"
         inkscape:connector-curvature="0" />
      <path
         id="path3345"
         d="m -222.24335,70.409904 c 2.87828,11.938411 6.93373,23.560348 11.32317,35.027226 3.36474,8.16357 8.40458,15.29855 12.9647,22.81342 5.23058,4.39331 8.08405,10.84578 12.8859,15.54262 3.30699,4.5251 4.47188,10.46889 8.73407,14.26244 3.24912,3.62419 4.60719,8.67527 8.45656,11.7902 3.67802,3.64686 6.65493,7.932 9.26337,12.43256 3.65019,7.17296 8.9258,13.40209 12.05275,20.89279 0.23604,-1.17045 2.26782,6.70026 3.62643,5.66396 0.20514,-1.35138 -0.15014,-0.88055 0.91415,-1.51216 -27.95771,14.78816 -55.91543,29.57631 -83.87313,44.36447 0.42417,-0.56125 0.60743,-1.44071 1.27254,-1.68368 0.6598,-0.24103 1.50125,0.89369 2.05673,0.4674 1.59976,-1.22763 3.70013,-6.88622 4.49623,-8.77678 3.03468,-2.74392 2.74529,-7.66884 5.2696,-10.60389 6.20852,-7.21861 -3.75276,7.47663 3.65018,-4.05559 4.57614,-7.97445 11.00502,-14.65189 17.20028,-21.4021 6.49756,-7.21511 12.6883,-14.66851 19.20376,-21.8648 5.50746,-9.01877 12.48174,-16.96219 18.10281,-25.90154 1.02708,-4.67356 5.58398,-7.11164 7.92889,-10.8089 3.04812,-4.80604 -0.98958,-0.99227 3.03084,-4.29037 2.83117,-4.81633 6.61683,-8.90721 9.95088,-13.40334 3.56383,-4.951 7.11777,-10.53888 9.03313,-16.31258 2.13776,-2.68856 3.21443,-5.21491 3.85906,-8.53277 0,0 89.869683,-36.357736 89.869683,-36.357736 l 0,0 c -4.138362,-0.895354 -3.035844,3.598183 -5.157144,6.243073 -3.963375,3.366453 0.261909,-0.846998 -2.668977,5.403938 -4.030972,8.597242 -0.120456,-3.995012 -3.506929,4.554962 -0.480654,1.213501 -0.465759,2.578633 -0.919818,3.80209 -0.422415,1.138258 -1.126899,2.154099 -1.690335,3.231154 -3.300849,4.541145 -6.441543,8.934849 -10.085328,13.062929 -4.260807,10.86187 1.832238,-2.39735 -3.337857,3.70973 -0.736821,0.87033 -0.633618,2.1961 -1.158093,3.20542 -1.74456,3.35708 -5.242608,4.78904 -7.500672,7.74387 -4.760271,9.59885 -11.003778,18.00633 -17.892972,26.17716 -0.733338,1.76994 -1.145493,3.70584 -2.199978,5.30982 -1.787922,2.71956 -4.878585,4.37495 -6.963732,6.87961 -3.15513,3.79003 -5.789979,8.02437 -9.488138,11.39952 -5.8011,6.52948 -11.76225,12.74033 -17.31303,19.376 -1.03599,1.91634 -1.18854,4.26423 -2.42442,6.06131 -1.83799,2.67269 -2.21664,-1.81013 -5.05191,5.66104 -0.37758,0.99497 -0.91909,1.92151 -1.37865,2.88227 -3.99777,4.84504 0.40193,-1.03459 -2.85294,5.59947 -2.58488,5.26845 -1.89446,-1.30049 -1.59125,6.76294 -0.1903,0.55573 -1.17681,0.16077 -1.76524,0.24118 -28.71473,15.45581 -57.42949,30.91159 -86.14421,46.36739 -4.67282,-2.82116 -7.10249,-7.41575 -9.10514,-12.32258 -2.21073,-7.23397 -7.38703,-12.66937 -10.87081,-19.27125 -2.67422,-3.79479 -5.5338,-7.46518 -8.92069,-10.67463 -2.96047,-3.85537 -5.26275,-8.16178 -8.22768,-11.99085 -3.64242,-4.55777 -5.99916,-9.44627 -8.84082,-14.44257 -4.40951,-5.71021 -8.33788,-11.75035 -13.05877,-17.22857 -4.97687,-7.92698 -10.52981,-15.46991 -13.80031,-24.3336 -4.50027,-11.52752 -7.12407,-23.7236 -11.90905,-35.17535 0,0 84.55231,-45.986326 84.55231,-45.986326 z"
         inkscape:connector-curvature="0" />
      <path
         id="path3351"
         d="m -154.40677,322.99679 c -0.54343,10.71987 -0.1662,21.45226 -0.0343,32.17635 0.027,7.64065 0.11827,15.27836 0.0599,22.92161 -0.42807,9.07158 1.89949,17.92607 3.14974,26.85718 0.45482,9.89185 3.34359,19.37062 4.94391,29.10533 0.87286,9.50088 3.43527,18.73135 4.86392,28.14084 1.24869,7.94731 5.12726,14.98388 7.89323,22.42863 2.46941,6.22883 3.08047,12.90387 3.57959,19.51092 -0.36474,4.70236 1.13413,8.63056 2.49123,13.03704 1.60381,4.98734 2.09712,10.07469 2.38332,15.26788 1.38855,7.33286 2.53193,14.73323 3.98099,22.06847 2.76421,8.14531 5.67505,16.29089 9.60706,23.96854 3.0116,7.57348 8.04186,13.9946 12.767975,20.5751 6.252309,6.62372 11.12058,14.37875 17.644752,20.78011 3.270429,3.20885 7.000506,5.93128 10.352061,9.05742 10.810953,6.6839 19.711557,16.48097 31.51951,21.38928 3.889539,1.29879 6.76278,4.29129 10.306989,6.15378 1.361043,0.71521 2.977191,0.88428 4.319352,1.63347 4.824693,2.69307 5.551344,3.92734 10.95903,5.82786 3.9645627,3.48204 9.1175217,4.00441 13.6038417,6.35057 6.9360354,3.62724 0.9125865,1.72809 7.1287146,3.32099 7.5823107,6.50794 17.3249587,8.39939 25.9609267,12.97852 10.201448,2.38966 18.767576,9.27375 29.106536,11.13381 5.578277,1.07149 11.880987,4.34952 17.24597,5.64775 10.558358,2.55491 -3.550269,-3.37278 8.815315,2.4799 6.976207,1.9183 14.181627,2.08159 21.365467,2.10651 5.95991,4.54115 13.86463,4.35096 21.1168,4.64181 9.25651,0.29446 18.51866,0.19995 27.77829,0.18072 11.51908,-0.43672 22.80332,0.17278 34.16746,1.95942 10.61394,1.96286 21.13473,4.08965 31.79068,6.0393 7.90367,1.37226 15.93033,1.45475 23.92834,1.56174 10.92043,0.14658 21.84167,0.17398 32.76281,0.23549 11.8666,-0.10483 23.73328,-0.16437 35.60005,-0.0699 12.07651,0.0959 24.15225,-0.0436 36.22868,-0.091 8.82175,-0.19538 17.65136,-0.0855 26.47505,-0.009 13.14448,0.004 26.28809,0.25901 39.43219,0.20883 13.28936,-0.17518 26.57863,-0.0647 39.86823,-0.0608 17.33009,0.44469 34.60702,1.97365 51.9147,3.24864 18.08427,1.20618 36.21134,1.65518 54.33369,1.664 16.48828,0.31139 32.97824,-0.0262 49.46716,-0.049 16.93717,1.00818 33.67392,-0.90315 50.50539,-2.36666 15.80158,-0.80566 30.95888,-4.94584 46.7119,-6.36114 11.77827,-4.9434 24.81281,-4.16028 37.13147,-6.69794 12.80395,-2.15228 25.78254,-3.05826 38.73839,-3.76756 1.57682,-0.0855 3.17494,0.0121 4.73048,-0.25674 1.32351,-0.22878 2.5059,-1.03333 3.83554,-1.22458 5.12959,-0.73784 11.18108,0.33331 16.355,0.60339 1.21514,-0.65403 2.32905,-1.54027 3.64537,-1.96204 2.19735,-0.7041 7.45726,-0.83074 9.66191,-1.28399 4.20537,-0.86457 8.42752,-2.6325 12.46601,-4.06533 1.14533,-0.26849 2.29065,-0.53698 3.436,-0.80544 1.02415,-0.54155 1.94494,-1.3483 3.07245,-1.62463 1.31504,-0.32231 2.75174,0.21363 4.06278,-0.124 1.41743,-0.36508 2.53026,-1.51957 3.93325,-1.93552 1.51936,-0.45046 8.99806,-1.16755 10.50144,-1.32657 6.02123,0.9568 10.65524,-2.05707 16.04684,-3.6585 1.7141,-0.50915 3.56728,-0.43225 5.28955,-0.91381 1.54288,-0.43141 6.00437,-2.58748 7.61664,-3.34367 12.18737,-6.46956 -5.04158,2.22399 7.4872,-2.64494 1.33459,-0.51863 2.31705,-1.7592 3.67889,-2.20337 5.23714,-1.70798 11.85855,-1.32825 17.3227,-1.97551 13.23149,-0.65736 -0.85124,0.9875 9.30592,-2.71779 1.63031,-0.59472 3.46065,-0.39703 5.15177,-0.79284 5.57861,-1.30568 10.71326,-4.11545 16.16923,-5.86261 13.62852,-3.64868 -0.96408,0.78244 11.90232,-4.762 1.96083,-0.84491 4.1202,-1.17093 6.09777,-1.97668 4.95243,-2.01782 9.24858,-5.40354 13.93146,-7.93823 -26.10315,14.84875 -52.153,29.78931 -78.30948,44.54628 -2.31596,1.30662 4.0546,-3.46854 6.35471,-4.80217 28.64162,-16.60678 57.53056,-32.79396 86.27656,-49.22386 26.1937,-14.97113 -52.32829,30.04419 -78.61961,44.8475 -1.45389,0.81861 2.72399,-1.92091 4.08599,-2.88139 228.61502,-128.36464 13.5905,-7.30701 10.22194,-5.42815 -1.99509,1.11276 3.8801,-2.40857 5.79305,-3.65413 7.15147,-4.65644 13.84308,-9.73005 20.54376,-14.98904 9.36936,-7.86139 17.19243,-17.39779 24.99894,-26.74508 9.34938,-12.24669 18.19893,-24.69046 26.30193,-37.79555 10.7413,-15.36155 20.4969,-31.36087 29.9565,-47.5141 7.86,-15.76744 14.8821,-31.93528 22.4553,-47.84715 6.0178,-13.2298 11.0335,-26.88598 16.9787,-40.13961 4.7773,-8.9799 8.7132,-18.1718 12.4102,-27.61113 4.4989,-9.39209 7.4066,-19.52926 10.7046,-29.39763 4.0343,-12.54441 7.9523,-25.12649 11.8297,-37.729 3.4545,-8.08332 6.8157,-16.08884 9.3764,-24.48522 1.4839,-5.05435 1.4369,-10.35927 1.6719,-15.57159 0.1718,-7.02101 -0.063,-14.04046 -0.1546,-21.05962 -0.2461,-3.7876 0.017,-7.60034 -0.2289,-11.38287 0.01,-0.48354 0.01,-0.9671 0.013,-1.45063 0,0 86.5898,-43.57255 86.5898,-43.57255 l 0,0 c 0,0.47809 0.012,0.95621 0.012,1.43431 -0.2308,3.84204 0.023,7.71032 -0.1848,11.55747 -0.039,7.06422 -0.1861,14.12921 0.012,21.19367 0.2409,5.86188 0.2472,11.73359 -0.49,17.56667 -1.8926,9.0879 -5.3288,17.87419 -9.9922,25.93686 -5.3715,11.86586 -6.4431,24.99933 -12.0473,36.80154 -2.2037,10.74747 -6.9522,20.4784 -9.1987,31.24532 -3.4425,4.46417 -3.7887,8.11862 -5.687,13.30285 -1.7772,4.85325 -5.0225,9.25322 -7.5702,13.70653 -5.7163,13.63712 -12.5968,26.83171 -17.3409,40.87667 -8.3255,15.7455 -15.3204,32.10244 -22.6651,48.28442 -8.4924,16.77889 0.085,0.75825 -9.6438,16.36396 -6.5417,10.49342 -11.6447,21.96305 -19.8533,31.38052 -7.6824,13.16134 -15.2529,26.48723 -25.6429,37.77813 -0.9844,2.01955 -1.6972,4.19173 -2.9531,6.05866 -2.0766,3.08702 -5.1395,5.40278 -7.6436,8.16314 -5.0853,5.60563 -3.3276,3.60118 -8.2636,10.06263 -1.7011,1.94002 -3.6368,3.6667 -5.4551,5.50006 -6.4671,5.34348 -12.9418,10.89084 -19.7485,15.81086 -49.9926,36.13524 -181.80048,99.23219 -15.3511,9.20978 -32.06174,15.09158 -49.04582,22.93347 -90.08263,52.00025 -24.57686,17.40804 52.47527,-29.71684 78.55023,-44.85082 1.1482,-0.66642 -2.59945,0.72235 -3.72652,1.42303 -1.17621,0.73121 -1.86822,2.09121 -3.06072,2.79634 -28.52757,16.86926 -57.3466,33.25322 -86.01992,49.87984 -10.29503,5.68876 -21.50052,9.51436 -32.6566,13.21749 -10.35508,3.87584 -20.94768,7.24033 -32.02999,8.00206 -9.71385,1.45024 -18.5372,5.0712 -27.51537,8.86583 -9.76638,2.85073 -19.63661,5.11238 -29.78779,6.13862 -8.35565,1.90411 -16.36983,4.69989 -24.57123,7.09991 -9.0016,2.30137 -18.34387,4.2881 -27.59307,4.72053 -8.10588,-0.0748 -15.98291,0.9749 -24.06792,1.32246 -12.77559,0.79594 -25.50105,2.06998 -38.08012,4.497 -12.48997,1.49574 -24.82488,3.42706 -37.11465,6.08993 -15.44953,2.03474 -30.7297,5.30224 -46.35631,5.84918 -17.14301,1.56118 -34.27111,2.41523 -51.49789,2.04302 -16.39812,-0.007 -32.79444,-0.329 -49.19287,-0.30778 -18.19956,-0.4748 -36.41785,-0.64615 -54.56713,-2.22331 -17.30274,-1.32816 -34.64958,-2.53063 -52.01483,-2.29578 -13.23318,0.005 -26.46599,0.11536 -39.6989,-0.0608 -13.33799,-0.0517 -26.67556,0.20451 -40.01392,0.2086 -8.8149,0.0745 -17.6363,0.1884 -26.44901,-0.009 -11.99323,-0.0476 -23.98574,-0.1872 -35.97904,-0.0842 -11.82519,0.10015 -23.65041,0.0639 -35.47576,-0.0121 -11.21689,0.0846 -22.43863,0.2367 -33.65404,0.0308 -8.28783,-0.38448 -16.56819,-1.16357 -24.66724,-3.01761 -10.33366,-2.24318 -20.74963,-4.10239 -31.1964,-5.75793 -11.17556,-1.33801 -22.401264,-0.66078 -33.63515,-0.69914 -9.457423,-0.0144 -18.930981,-0.0216 -28.369521,-0.65503 -3.999775,-0.43199 -7.894058,-0.93825 -11.79163,-1.96223 -2.520145,-0.6621 -4.863865,-1.92243 -7.410631,-2.47645 -0.617243,-0.13434 -1.25792,0.12303 -1.886891,0.18456 -7.79879,-0.59614 -15.494597,-1.87386 -22.7873772,-4.79917 -8.6274981,-2.06992 -16.9632261,-5.04909 -25.4292468,-7.65923 -10.206486,-3.78171 -19.917081,-8.71462 -30.156955,-12.41908 -8.795277,-3.76681 -17.495199,-7.5118 -25.84575,-12.18026 -6.958179,-3.49558 -14.199615,-6.33002 -21.073329,-10.00162 -8.473319,-4.55426 -16.466789,-9.96417 -25.015649,-14.39567 -11.78784,-6.51958 -21.95491,-15.64949 -32.64891,-23.74688 -10.9215,-9.34473 -20.34566,-19.72133 -28.9185,-31.20899 -5.77215,-6.71368 -11.93139,-13.18668 -14.7332,-21.73989 -4.00527,-8.48132 -6.91849,-17.33839 -10.42326,-26.03142 -1.95394,-7.7448 -2.60152,-15.78234 -5.35371,-23.35419 -0.0671,-4.43177 -0.22461,-8.85342 -1.2899,-13.1832 -1.37998,-5.03258 -4.23285,-9.71024 -3.5202,-15.07532 -0.0523,-5.77413 -0.24419,-11.62276 -1.9969,-17.18051 -2.6854,-8.12446 -6.88775,-15.7225 -8.58902,-24.17553 -1.24163,-9.46438 -3.64007,-18.71823 -4.75388,-28.17086 -1.22898,-9.9443 -4.58729,-19.21942 -5.06525,-29.19676 -1.10888,-9.31273 -3.4972,-18.48454 -3.92403,-27.82735 -0.0589,-7.66327 0.0336,-15.32111 0.0599,-22.98185 0.13019,-10.71244 0.51192,-21.43387 -0.0343,-32.14173 0,0 85.90333,-43.22447 85.90333,-43.22447 z"
         inkscape:connector-curvature="0" />
      <path
         id="path3353"
         d="m 1181.973,281.35473 c -6.7194,8.41727 -13.9576,16.44088 -20.114,25.2746 -6.7036,8.88745 -13.9871,17.30076 -21.5182,25.51524 -7.0111,8.52904 -13.3061,17.59798 -19.8467,26.47718 -4.9924,5.76491 -7.7714,13.02381 -12.6015,18.86419 -1.9728,2.37125 -2.2916,3.98228 -2.8363,7.09406 0,0 -88.8091,38.14508 -88.8091,38.14508 l 0,0 c 5.1209,-0.86779 0.9461,-2.78042 3.2155,-6.43972 1.4584,-3.26956 3.8884,-4.96887 5.5884,-8.0257 0.7057,-1.2688 0.8994,-2.7918 1.6969,-4.00641 7.7602,-11.81873 -1.9423,7.26544 5.3801,-8.1381 7.0731,-8.63242 13.51,-17.79656 19.8979,-26.89203 4.5251,-5.86139 10.254,-10.63802 14.7546,-16.4931 1.177,-1.5313 1.9572,-3.34507 3.2013,-4.82379 1.1089,-1.31813 2.538,-2.33774 3.807,-3.50661 2.425,-3.30364 4.2023,-7.06613 6.8297,-10.21526 1.2476,-1.49542 3.2612,-2.26936 4.4344,-3.8224 1.1685,-1.54684 1.3239,-3.67827 2.4321,-5.26772 1.6208,-2.32439 5.0499,-3.13725 5.7348,-6.29336 0,0 88.7531,-37.44615 88.7531,-37.44615 z"
         inkscape:connector-curvature="0" />
      <path
         id="path3355"
         d="m 1217.6411,237.59796 c 3.8692,9.09379 7.3892,18.40161 12,27.16495 4.4111,8.4314 10.5884,15.56954 14.396,24.3027 1.707,6.84174 4.3833,13.28624 6.8016,19.94328 3.8843,7.97533 9.1486,15.05235 13.9627,22.44804 4.2758,4.16754 5.9363,9.42162 6.5196,15.15951 1.5249,5.36755 4.4906,10.10469 6.3502,15.36419 1.6651,4.02695 2.605,8.20552 2.9794,12.52458 2.1561,2.07391 3.7613,5.46043 4.799,8.78524 0.1053,0.62562 0.2095,1.25125 0.3144,1.87686 0,0 -86.3396,44.1138 -86.3396,44.1138 l 0,0 c 0.048,-0.27208 0.096,-0.54417 0.1446,-0.81628 0.2256,-3.34415 -2.6637,-4.747 -3.8787,-7.72563 -1.7061,-4.15042 -1.195,-8.50571 -2.6278,-12.80298 -1.8321,-6.18437 -5.5224,-11.61602 -8.0324,-17.54092 0.2468,-4.55182 -0.1604,-7.45388 -3.634,-10.98254 -4.9847,-8.08176 -10.1336,-16.04027 -14.8603,-24.28151 -2.4453,-6.63168 -5.8681,-12.77632 -6.839,-19.71187 -2.8488,-8.66745 -9.5609,-15.22726 -13.4748,-23.4435 -4.719,-8.5036 -7.7631,-17.86049 -12.1682,-26.53496 0,0 83.5872,-47.84296 83.5872,-47.84296 z"
         inkscape:connector-curvature="0" />
      <path
         id="path3357"
         d="m -130.16122,106.1987 c -1.87088,8.32699 -2.8334,16.80891 -3.8501,25.26762 0.53436,3.54031 -1.44981,6.36893 -1.34277,9.79589 0.25408,2.58712 0.39429,5.18624 0.70816,7.76829 0.0781,2.84652 0.15403,5.69101 0.0769,8.5401 0.0263,0.35661 0.0526,0.71324 0.0788,1.06986 0,0 -86.68088,43.61384 -86.68088,43.61384 l 0,0 c 0.0265,-0.3805 0.0527,-0.76104 0.0793,-1.14157 -0.0776,-2.64794 0.003,-5.29082 -0.0676,-7.93737 -0.003,-2.53596 -0.0851,-5.06703 -0.41738,-7.58533 -0.31059,-2.37399 -1.28307,-6.23484 -0.64154,-8.51557 0.13993,-0.49787 0.84933,-0.60377 1.27399,-0.90568 0.12727,-0.74742 0.25452,-1.49482 0.38175,-2.24225 0.76384,-8.67604 2.77954,-17.17381 3.64535,-25.84194 0,0 86.75581,-41.88589 86.75581,-41.88589 z"
         inkscape:connector-curvature="0" />
    </g>
  </g>
</svg>
